<svg xmlns="http://www.w3.org/2000/svg" viewBox="0 0 1000 330"><defs><style>.cls-1{isolation:isolate;}.cls-19,.cls-2{fill:#fff;}.cls-2{opacity:0.49;}.cls-3{fill:#ffd54f;}.cls-4{fill:#2a1968;}.cls-5{fill:#614dd4;}.cls-6{fill:#ff6160;}.cls-7{fill:#ae253d;}.cls-8{fill:#1f1587;}.cls-9{fill:#090028;}.cls-10{fill:#fbfdfc;}.cls-11{fill:#fce6cf;}.cls-12{mix-blend-mode:multiply;}.cls-13{opacity:0.5;}.cls-14{fill:#f7546c;}.cls-15{fill:#d95f76;}.cls-16{fill:#ab3768;}.cls-17{fill:#d9901d;}.cls-18{fill:#f4ba5e;}.cls-20{fill:#f9b59d;}.cls-21{fill:#030014;}.cls-22{fill:#e2f2f1;}.cls-23{fill:#100e68;}.cls-24{fill:#f3cbc2;}.cls-25{fill:#472a31;}.cls-26{fill:#edfcfb;}.cls-27{fill:#cee4ef;}.cls-28{fill:#683d46;}.cls-29{fill:#f78c63;}.cls-30{fill:#4cb7d8;}.cls-31{fill:#e23e3d;}.cls-32{fill:#f9ae64;}.cls-33{fill:#35182e;}.cls-34{fill:#523bc8;}</style></defs><g class="cls-1"><g id="Layer_1" data-name="Layer 1"><rect class="cls-2" x="-136.62" y="-129.33" width="1349.11" height="584.87"/><rect class="cls-3" x="692.07" y="-129.33" width="520.42" height="584.87"/><path class="cls-4" d="M808.93,138.62s15.33-5.48,15.82-26C824.75,112.62,802.26,121.93,808.93,138.62Z"/><path class="cls-5" d="M802.7,150.78s27.86,3.11,44.14-28.28C846.84,122.5,805,119.91,802.7,150.78Z"/><polygon class="cls-6" points="755.76 135.47 761.06 135.54 761.14 129.99 755.87 129.27 755.76 135.47"/><polygon class="cls-6" points="773.6 134.01 778.9 132.96 777.8 127.52 772.38 127.93 773.6 134.01"/><path class="cls-4" d="M765,87.44c-.2,5.73-1.06,28.14-2.87,42.8a1.93,1.93,0,0,1-1.94,1.69,14.91,14.91,0,0,1-4.29-.64,1.93,1.93,0,0,1-1.4-1.81l-.73-44.61a1.83,1.83,0,0,1,0-.33l0-.22a2,2,0,0,1,2.64-1.5l7.28,2.76A1.93,1.93,0,0,1,765,87.44Z"/><path class="cls-5" d="M772.68,84.85a225,225,0,0,0,1.73,23.94c.91,7,3.49,14.21,3.91,20.28a1.63,1.63,0,0,1-1.29,1.7,15.17,15.17,0,0,1-4.91.25,1.64,1.64,0,0,1-1.42-1.25L765,110.56l-3.45-19.42-3.69-10.57Z"/><path d="M770.49,129.16h0a.07.07,0,0,0,.05-.1l-5.47-18.51-2.57-14.48a.1.1,0,0,0-.1-.07.08.08,0,0,0-.06.1l2.57,14.49h0l5.47,18.52A.1.1,0,0,0,770.49,129.16Z"/><path d="M776.22,118h0a.08.08,0,0,0,.06-.1c-.62-2.67-1.53-7.92-2-10.82,0-.08,0-.14,0-.17h0a1.1,1.1,0,0,0,0-.16l-1.25-15a.09.09,0,0,0-.09-.08.08.08,0,0,0-.08.09c0,.15,1.25,15,1.27,15.2h0V107h0l0,.11c.49,2.9,1.39,8.15,2,10.83A.08.08,0,0,0,776.22,118Z"/><path d="M754.5,128.05h0a.09.09,0,0,0,.08-.08L754,91.8a.1.1,0,0,0-.09-.08.08.08,0,0,0-.08.09l.59,36.16A.09.09,0,0,0,754.5,128.05Z"/><path class="cls-7" d="M761.18,136.2h-4.65l-1.88-2-3.44,2h-.75a.55.55,0,0,0-.54.42.53.53,0,0,0,.52.62h10.81a.14.14,0,0,0,.14-.14v-.69A.21.21,0,0,0,761.18,136.2Z"/><path class="cls-8" d="M761.14,136.21v-1.88a1.66,1.66,0,0,0-2-.51,2.71,2.71,0,0,1-3.39-.27l-3.95,1.73s-1.08.35-1.37.93Z"/><rect x="761.1" y="134.33" width="0.08" height="1.87"/><path d="M757.55,134.35a1.22,1.22,0,0,1-.24,0v-.07a2.83,2.83,0,0,0,1.82-.47l.05.06A3,3,0,0,1,757.55,134.35Z"/><polygon points="760.18 135.85 760.13 135.79 760.64 135.46 760.68 135.52 760.18 135.85"/><polygon points="759.82 135.76 759.77 135.7 760.28 135.36 760.32 135.43 759.82 135.76"/><path d="M750.08,137.15a.53.53,0,0,1-.2-.42.56.56,0,0,1,.56-.56h10.69a.3.3,0,0,1,.3.3V137h-.08v-.52a.22.22,0,0,0-.22-.23H750.44a.49.49,0,0,0-.49.49.47.47,0,0,0,.18.36Z"/><path d="M750.48,136.22l-.07,0a1.91,1.91,0,0,1,1-.8c.79-.33,4.28-1.86,4.32-1.87l0,.07s-3.52,1.54-4.32,1.87A1.91,1.91,0,0,0,750.48,136.22Z"/><path class="cls-7" d="M779.16,133.29l-4.47,1.27-2.38-1.43L769.57,136l-.71.21a.52.52,0,0,0-.4.54.53.53,0,0,0,.67.46l10.38-2.94a.14.14,0,0,0,.1-.18l-.19-.66A.22.22,0,0,0,779.16,133.29Z"/><path class="cls-8" d="M779.12,133.31l-.53-1.81a1.68,1.68,0,0,0-2,.05,2.69,2.69,0,0,1-3.33.67L769.91,135s-.94.63-1.06,1.26Z"/><polygon points="779.15 133.29 779.08 133.31 778.55 131.51 778.63 131.49 779.15 133.29"/><path d="M775.15,132.5l-.24.06v-.08a2.78,2.78,0,0,0,1.62-.95l.06.05A2.93,2.93,0,0,1,775.15,132.5Z"/><polygon points="778.1 133.24 778.04 133.18 778.43 132.72 778.49 132.78 778.1 133.24"/><polygon points="777.72 133.24 777.66 133.19 778.05 132.73 778.11 132.78 777.72 133.24"/><path d="M768.75,137.24a.58.58,0,0,1-.31-.36.55.55,0,0,1,.39-.69l10.26-2.92a.31.31,0,0,1,.38.21l.15.5-.08,0-.15-.5a.22.22,0,0,0-.27-.15l-10.27,2.91a.49.49,0,0,0-.07.91Z"/><path d="M768.88,136.23h-.08a1.93,1.93,0,0,1,.77-1.05c.67-.53,3.59-2.95,3.62-3l0,.06s-3,2.45-3.62,3A1.88,1.88,0,0,0,768.88,136.23Z"/><path class="cls-6" d="M754.16,60.41s-2.6-4.31-2.83-5c-.52-1.51-1.92-15.35-1.92-15.35l4.17-.3,2.32,10.91,3.11,6.8Z"/><path class="cls-6" d="M748.93,35.33a.42.42,0,0,1,.51.22l.54,1.22a.1.1,0,0,0,.1,0h0a.1.1,0,0,0,.09-.12l-.56-1.88a.32.32,0,0,1,.29-.43h0a.53.53,0,0,1,.52.35l.57,1.92a.11.11,0,0,0,.1.07h0a.08.08,0,0,0,.08-.1l-.2-2.21a.42.42,0,0,1,.33-.45.4.4,0,0,1,.46.36l.21,2.22a.09.09,0,0,0,.11.09h.1a.09.09,0,0,0,.09-.09l.08-2.07a.39.39,0,0,1,.38-.4.4.4,0,0,1,.42.41s0,3.17.1,3.66l.89-.74a.41.41,0,0,1,.57,0h0a.4.4,0,0,1,0,.56l-1.41,2.17a.79.79,0,0,1-.61.11,32.14,32.14,0,0,1-3.33.49l-.15-2.52a6.12,6.12,0,0,0-.52-2.11l-.08-.17A.4.4,0,0,1,748.93,35.33Z"/><path class="cls-6" d="M777.78,63.07s3.36-3.75,3.71-4.36c.8-1.38,4.77-14.72,4.77-14.72l-4-1.07L777.9,53.2l-4.33,6.09Z"/><path class="cls-6" d="M787.63,39.42a.42.42,0,0,0-.55.12l-.76,1.09a.11.11,0,0,1-.11,0h0a.1.1,0,0,1-.06-.14l.91-1.74a.33.33,0,0,0-.21-.48h0a.53.53,0,0,0-.58.25l-.92,1.78a.08.08,0,0,1-.11,0h0a.1.1,0,0,1-.07-.13l.62-2.13a.42.42,0,0,0-.25-.5.4.4,0,0,0-.52.27L784.37,40a.11.11,0,0,1-.12.07l-.1,0a.09.09,0,0,1-.07-.11l.31-2.05a.39.39,0,0,0-.3-.46.41.41,0,0,0-.49.33s-.64,3.1-.78,3.57l-.74-.89a.41.41,0,0,0-.55-.16h0a.4.4,0,0,0-.15.55l1,2.39a.82.82,0,0,0,.58.21c2.22.83,2.57.94,3.18,1.11l.63-2.45a6.07,6.07,0,0,1,.9-2l.11-.15A.4.4,0,0,0,787.63,39.42Z"/><path class="cls-6" d="M765.83,52.94l-1.19,3a1.18,1.18,0,0,0,.41,1.49l-1,1.92c-.26.49.17.48.6.82a2.84,2.84,0,0,0,.79.46,1.83,1.83,0,0,0,2.12-.5,14.81,14.81,0,0,0,.7-2.29l.38-.89,1.25-3.55Z"/><path class="cls-9" d="M767.71,55.42h0a0,0,0,0,0,0-.06s-.35-.84-1.06-.61a0,0,0,0,0,0,0,0,0,0,0,0,.06,0c.62-.19.93.54,1,.57A0,0,0,0,0,767.71,55.42Z"/><path class="cls-9" d="M766.05,54.48h0a.06.06,0,0,0,0-.07s-.29-.53-.63-.4a0,0,0,0,0,0,.05,0,0,0,0,0,.06,0c.27-.09.51.36.52.37Z"/><path d="M766.78,55.26a.14.14,0,0,0,.08.18.15.15,0,0,0,.18-.08.14.14,0,0,0-.26-.1Z"/><path d="M765.47,54.6a.13.13,0,1,0,.25.1.13.13,0,1,0-.25-.1Z"/><path class="cls-9" d="M769.69,53.56l-1.11.73s-2.5,0-3.22-1.44-.2-1.77.32-2.15a1.72,1.72,0,0,1,2,.4c.43.43,1.07-.1,1.54.48s.94,1.44.77,1.64Z"/><path class="cls-9" d="M769.81,53.11a1.37,1.37,0,0,1,.91,1.4,3.12,3.12,0,0,1-.78,1.69c-.12.28-.67,2.26-2,1.6l.87-3.3,1-1.07Z"/><path class="cls-6" d="M767.86,55.63a.82.82,0,0,0,.47,1.07.83.83,0,0,0,.6-1.54A.82.82,0,0,0,767.86,55.63Z"/><path class="cls-7" d="M768.5,56.42a.34.34,0,0,0,.4-.12.33.33,0,0,0,0-.4.39.39,0,0,0-.41-.14.36.36,0,0,1,.23-.13.48.48,0,0,1,.35.11h0a0,0,0,0,0,0,0,.64.64,0,0,0-.38-.12.49.49,0,0,0-.31.21l0,.06.08,0a.37.37,0,0,1,.43.11.28.28,0,0,1,0,.34.29.29,0,0,1-.34.11h0s0,0,0,0,0,0,0,0Z"/><path class="cls-7" d="M767.47,57.4a2.25,2.25,0,0,1-2.94,1l.52-1A2.18,2.18,0,0,0,767.47,57.4Z"/><path class="cls-9" d="M764.68,55.43s-1.08,2,.26,2.56c1.91.86,2.53-.18,3-1l.75-1.88.15-.57h0a1,1,0,0,0-.46.46,8,8,0,0,1-.92,1.63C767.28,56.6,765.06,55.35,764.68,55.43Z"/><path class="cls-7" d="M766,56h0a0,0,0,0,0,0,0l-.37-.31.53-1s0,0,0,0h0l-.55,1,.4.33Z"/><path class="cls-10" d="M766.16,56.49l-.84-.35a.46.46,0,0,0,.84.35Z"/><path d="M769.13,88.17a.07.07,0,0,0,.06,0l1.86-1.68a.08.08,0,0,0,0-.12.08.08,0,0,0-.11,0L769.08,88a.08.08,0,0,0,0,.11A.05.05,0,0,0,769.13,88.17Z"/><path d="M769,89.12l.06,0,1.41-1.25a.09.09,0,0,0,0-.12.08.08,0,0,0-.11,0L769,89a.07.07,0,0,0,0,.11S769,89.11,769,89.12Z"/><path class="cls-11" d="M753.79,40s2.36,10.81,2.28,10.7,4.29,7.73,5,8.06,10,.89,10,.89l6.61-6.24,4.28-10.24c1.12,0,4.32,1.55,4.32,1.55L782,58.23a3.84,3.84,0,0,1-.88,1.48c-1.76,1.81-6.7,6.94-7.1,7.76-.49,1-1.16,22.09-1.16,22.09C757,89.5,753.55,85.7,753.55,85.7s1.9-20.72,1.93-21.79c0,0-2.55-4.58-3.38-6.35h0s-.62-1.21-1-2.25-1.89-15-1.89-15A18.45,18.45,0,0,1,753.79,40Z"/><path d="M771.08,59.68l0,0,6.57-6.21.77.38a.07.07,0,0,0,.06-.12l-.86-.43,0,0L771,59.53l-2.88-.18a.06.06,0,0,0-.07.06.09.09,0,0,0,.06.08Z"/><path d="M777.66,53.44a.07.07,0,0,0,.06,0L782,43.15a.07.07,0,0,0,0-.09s-.08,0-.09,0l-4.29,10.24s0,.08,0,.09Z"/><path d="M773.08,82.64a.08.08,0,0,0,.07-.07c.24-6.07.9-15,.91-15.1a.07.07,0,0,0-.07-.07.06.06,0,0,0-.07.06c0,.09-.67,9-.91,15.1a.06.06,0,0,0,.06.08Z"/><path d="M754,80.57a.07.07,0,0,0,.07-.06c.74-11.13,1.62-17.11,1.63-17.17s0-.07-.06-.08a.08.08,0,0,0-.08.06c0,.06-.89,6-1.63,17.18a.07.07,0,0,0,.07.07Z"/><path d="M755.48,64h0a.08.08,0,0,0,0-.09c0-.05-3-5.22-3.72-7-.1-.26-.19-.48-.28-.68-.54-1.29-.77-1.82-1-5.05a.06.06,0,0,0-.07-.06.07.07,0,0,0-.07.07c.27,3.25.51,3.83,1,5.1.09.2.18.42.28.67.74,1.82,3.69,7,3.72,7.05Z"/><g class="cls-12"><g class="cls-13"><path class="cls-14" d="M760.22,88c1-12.8,5.32-28.45,5.37-28.61l-.28-.07c0,.15-4.35,15.83-5.37,28.66Z"/></g></g><path class="cls-9" d="M765.67,59.31a6.57,6.57,0,0,1-.89.93c-5,4.73-14.22-.69-12.14,7.92.65-1.22.72-3.09,2.09-3.91a1.77,1.77,0,0,1,.63-.23C758.94,63.43,764,64.3,765.67,59.31Z"/><polygon class="cls-9" points="765.74 60.06 765.2 60.36 764.81 60.22 764.65 59.45 765.24 59.06 765.81 59.23 765.74 60.06"/><polygon class="cls-14" points="765.55 58.91 764.55 58.39 764.07 59.1 764.66 59.97 765.45 59.33 765.74 60.24 768.15 59.42 768.02 58.73 765.55 58.91"/><path class="cls-9" d="M772.83,88.71S759,89,753.62,84.87l-.07.89s2,2.08,8.3,3.11a51.51,51.51,0,0,0,11,.68Z"/><path class="cls-15" d="M761.65,87.79l-.25,1a.19.19,0,0,1-.22.13l-2.54-.57a.18.18,0,0,1-.14-.23l.3-1A.17.17,0,0,1,759,87l2.51.55A.18.18,0,0,1,761.65,87.79Z"/><path d="M755.89,49.8h0a.07.07,0,0,0,.05-.09l-2.11-9.82h-.06a16.91,16.91,0,0,0-4.61.36.08.08,0,0,0,0,.09.07.07,0,0,0,.09,0,16.49,16.49,0,0,1,4.5-.37l2.09,9.72A.07.07,0,0,0,755.89,49.8Z"/><rect class="cls-16" x="739.2" y="137.21" width="72.15" height="148.63" rx="3.63"/><rect class="cls-15" x="721.67" y="137.21" width="72.15" height="148.63" rx="3.63"/><path class="cls-4" d="M728.72,182.11V282c0,2.12-1.17,3.84-2.61,3.84H679.29c-1.44,0-2.61-1.72-2.61-3.84V182.11c0-2.12,1.17-3.84,2.61-3.84h46.82C727.55,178.27,728.72,180,728.72,182.11Z"/><path class="cls-5" d="M716.08,182.11V282c0,2.12-1.17,3.84-2.62,3.84H666.65c-1.45,0-2.62-1.72-2.62-3.84V182.11c0-2.12,1.17-3.84,2.62-3.84h46.81C714.91,178.27,716.08,180,716.08,182.11Z"/><path class="cls-17" d="M776.22,275.46V282c0,2.12-1.24,3.84-2.77,3.84H723.81c-1.53,0-2.77-1.72-2.77-3.84v-6.54c0-2.12,1.24-3.84,2.77-3.84h49.64C775,271.62,776.22,273.34,776.22,275.46Z"/><path class="cls-18" d="M762.81,275.46V282c0,2.12-1.24,3.84-2.77,3.84H710.4c-1.53,0-2.77-1.72-2.77-3.84v-6.54c0-2.12,1.24-3.84,2.77-3.84H760C761.57,271.62,762.81,273.34,762.81,275.46Z"/><path class="cls-15" d="M886.74,228.32a17.86,17.86,0,0,0,5.57-1.54l3.53,3.14,2.55-2,2.55-2-2.19-4.19a17.89,17.89,0,0,0,2.85-5l4.72-.29.39-3.21.4-3.21-4.51-1.41a17.86,17.86,0,0,0-1.54-5.57l3.14-3.53-2-2.55-2-2.55L896,196.6a17.61,17.61,0,0,0-5-2.85l-.28-4.72-3.21-.39-3.21-.4-1.42,4.51a17.8,17.8,0,0,0-5.56,1.54l-3.54-3.14-2.55,2-2.55,2,2.19,4.2a17.59,17.59,0,0,0-2.84,5l-4.72.28-.4,3.21-.39,3.21,4.51,1.42a17.8,17.8,0,0,0,1.54,5.56l-3.14,3.54,2,2.55,2,2.55,4.19-2.19a17.86,17.86,0,0,0,5,2.84l.29,4.72,3.21.4,3.2.39Zm-13.27-13.48a12.13,12.13,0,1,1,15.65,7A12.13,12.13,0,0,1,873.47,214.84Z"/><path class="cls-15" d="M622.74,183.7a23.31,23.31,0,0,0,7.23-2l4.59,4.08,3.32-2.59,3.31-2.58-2.84-5.45a23.31,23.31,0,0,0,3.69-6.53l6.13-.36.52-4.17.51-4.17-5.86-1.85a23,23,0,0,0-2-7.22l4.08-4.6L642.83,143l-2.58-3.31-5.45,2.84a23.2,23.2,0,0,0-6.53-3.7l-.36-6.13-4.17-.51-4.17-.52-1.85,5.86a23.25,23.25,0,0,0-7.22,2l-4.6-4.07L602.59,138l-3.31,2.59,2.84,5.45a22.88,22.88,0,0,0-3.69,6.52l-6.14.37-.51,4.17-.52,4.17,5.87,1.84a22.85,22.85,0,0,0,2,7.23l-4.08,4.59,2.58,3.31,2.59,3.32,5.45-2.85a23,23,0,0,0,6.52,3.7l.37,6.13,4.17.52,4.17.51ZM605.5,166.19a15.76,15.76,0,1,1,20.33,9.14A15.77,15.77,0,0,1,605.5,166.19Z"/><path class="cls-15" d="M859.19,176.4a7.55,7.55,0,0,0,2.5.15l1,1.79,1.32-.46,1.32-.46-.3-2a7.75,7.75,0,0,0,1.87-1.66l2,.55.61-1.26.62-1.26-1.65-1.22a7.76,7.76,0,0,0,.15-2.49l1.78-1-.46-1.32-.45-1.33-2,.31a7.75,7.75,0,0,0-1.66-1.87l.55-2-1.26-.62-1.26-.61-1.21,1.65a7.53,7.53,0,0,0-2.5-.15l-1-1.78-1.33.45-1.32.46.31,2A7.52,7.52,0,0,0,854.9,164l-2-.54-.61,1.25-.61,1.26,1.64,1.22a8.06,8.06,0,0,0-.15,2.49l-1.78,1,.46,1.33.46,1.32,2-.31a7.57,7.57,0,0,0,1.66,1.87l-.55,2,1.26.61,1.26.61ZM855.65,169a5.25,5.25,0,1,1,5.42,5.08A5.25,5.25,0,0,1,855.65,169Z"/><path class="cls-15" d="M678.71,131.57a12.61,12.61,0,0,0,3.86,1.51l.67,3.33,2.32,0,2.32,0,.56-3.35a13,13,0,0,0,3.79-1.65l2.83,1.87,1.61-1.67,1.61-1.68-2-2.75a12.71,12.71,0,0,0,1.51-3.86l3.33-.68,0-2.32,0-2.32-3.35-.55a12.88,12.88,0,0,0-1.65-3.79l1.87-2.83-1.67-1.61-1.68-1.61-2.75,2A12.71,12.71,0,0,0,688,108l-.68-3.33-2.32,0-2.32,0-.55,3.35a12.74,12.74,0,0,0-3.79,1.65l-2.83-1.87-1.61,1.67-1.61,1.67,2,2.76a12.61,12.61,0,0,0-1.51,3.86l-3.33.67,0,2.32.05,2.32,3.35.56a12.74,12.74,0,0,0,1.65,3.79l-1.87,2.83,1.67,1.61,1.67,1.61Zm-1.81-13.45a8.71,8.71,0,1,1,6,10.78A8.71,8.71,0,0,1,676.9,118.12Z"/><path class="cls-19" d="M795.06,93.53a164.36,164.36,0,0,1,22.56,1.18,6.27,6.27,0,0,0,6.92-6.12A10.05,10.05,0,0,0,823,83.13c-4.69-8.07-14.18-1-14.34,2.92,0,0-1.45-6.07-7-5.29s-4.2,9.56-4.2,9.56a4.21,4.21,0,0,0-3,.35A1.55,1.55,0,0,0,795.06,93.53Z"/><path class="cls-19" d="M672.2,81.44a164.45,164.45,0,0,1,22.59.55,6.27,6.27,0,0,0,6.75-6.31,10,10,0,0,0-1.72-5.41c-4.91-7.94-14.2-.66-14.26,3.32,0,0-1.61-6-7.19-5.1s-3.93,9.67-3.93,9.67a4.26,4.26,0,0,0-3.05.43A1.56,1.56,0,0,0,672.2,81.44Z"/><path class="cls-19" d="M712.41,115.37c4.79-.38,16.47-1.13,23.52-.16a1.12,1.12,0,0,0,1-1.83,3.75,3.75,0,0,0-2.86-1.08s1.33-6.55-5-7.1c-6.51-.57-6.53,6.3-6.53,6.3s-3.83-3.56-5.63.92c0,0-4-1.72-5.82.48A1.52,1.52,0,0,0,712.41,115.37Z"/><polygon class="cls-9" points="633.03 250.63 632.5 250.63 633.67 231.5 634.99 231.5 633.03 250.63"/><polygon class="cls-9" points="651.63 250.63 652.16 250.63 651 231.5 649.68 231.5 651.63 250.63"/><polygon class="cls-4" points="628.76 204.76 640.23 204.76 646.29 231.76 633.15 230.36 628.76 204.76"/><path class="cls-9" d="M655.08,228.63S640,229,635.46,229a1.51,1.51,0,0,1-1.48-1.26l-4-22.13a1.06,1.06,0,0,0-1.26-.86,1.1,1.1,0,0,0-.8,1.27l4.53,25.08a1.15,1.15,0,0,0,.24.51,1.73,1.73,0,0,0,1.52.93H655a1.76,1.76,0,0,0,1.73-1.77h0C656.76,229.8,656,228.63,655.08,228.63Z"/><path class="cls-9" d="M635.46,229.1a1.59,1.59,0,0,1-1.56-1.33l-4-22.14a1,1,0,0,0-.42-.64.92.92,0,0,0-.74-.14.09.09,0,0,1-.1-.07.09.09,0,0,1,.06-.1,1.1,1.1,0,0,1,.88.17,1.13,1.13,0,0,1,.48.75l4,22.14a1.43,1.43,0,0,0,1.4,1.19.08.08,0,0,1,.08.08A.08.08,0,0,1,635.46,229.1Z"/><path class="cls-9" d="M643,232.65h0l-8.16,0a2.12,2.12,0,0,1-2.48-1.83l-.48-2.68a.08.08,0,0,1,.07-.1.07.07,0,0,1,.09.07l.49,2.69a1.93,1.93,0,0,0,2.3,1.68H643a.09.09,0,0,1,0,.18Z"/><path class="cls-9" d="M633.18,204.84h-4a.09.09,0,0,1,0-.18h4a.09.09,0,0,1,.08.09A.09.09,0,0,1,633.18,204.84Z"/><path class="cls-6" d="M638,213.59l1.32.56,1.46.69s2.26.4,2.3.39l-.19.34c2.81.35,11.67.71,13.13.87.88.1,1.72,1.19,2.25,2l-.72.49s-7.74-.34-7.72-.18.22.82.56,1.83c-4.78.32-11.48.28-12.72-1.69C636.63,217.32,637.62,215,638,213.59Z"/><polygon class="cls-6" points="668.06 248.33 662.17 248.41 662.09 242.91 667.95 242.19 668.06 248.33"/><path class="cls-15" d="M649.76,228.72s-5.06.09-8.61,0a21,21,0,0,1-2.75-.09c-2.47-.55-3.08-8.26-.28-13s12.62,9.78,12.62,9.78Z"/><polygon class="cls-6" points="658.93 248.33 653.04 248.41 652.96 242.91 658.82 242.19 658.93 248.33"/><path class="cls-16" d="M655.22,218.4s12.43.8,12.79,2.23,1.39,16.71.62,23.23a32.17,32.17,0,0,1-7-.23l-.55-15.88-3.73-.43-8.53-10.26Z"/><path class="cls-15" d="M649.24,218.17s9.59,2.7,10,4.14,1.38,15.07.61,21.58c0,0-5.07.29-7.33-.26l-.61-15-2.19.08-5.3-9.34Z"/><path class="cls-9" d="M655.52,244.07a8.36,8.36,0,0,1-3.08-.36l-.05,0-.59-15.07.92.44-.07.15-.67-.31.58,14.67a11.92,11.92,0,0,0,4.15.3V244Z"/><path class="cls-9" d="M653.41,240.82c-.24-.93-.3-9.93-.31-10.31h.18c0,.09.07,9.36.3,10.26Z"/><path class="cls-9" d="M662.33,228.09a12,12,0,0,0-2.72-.43v-.17a12.42,12.42,0,0,1,2.76.43Z"/><path class="cls-9" d="M664.89,244a15.43,15.43,0,0,1-3.25-.32l-.07,0L661,227.64l.71.57-.11.14-.42-.34.54,15.55a15,15,0,0,0,3.32.3V244Z"/><path class="cls-9" d="M662.47,241.15c-.23-1.39,0-10.83,0-11.23h.18c0,.1-.24,9.83,0,11.2Z"/><path class="cls-9" d="M646,228.88c-2.21,0-4.86-.07-7.83-.3v-.17a87.32,87.32,0,0,0,14.88,0l0,.17A68,68,0,0,1,646,228.88Z"/><path class="cls-11" d="M649,213.33c.17,0,7.06,3,7.06,3L654.66,219l-3.86-.85Z"/><path class="cls-11" d="M639,201s-2.93-.1-4.33.69c-2.09,1.18-1.35,8-1.35,8s1.78-1,1.88-1.29S639,201,639,201Z"/><path class="cls-9" d="M638.29,215.68h0l2.15.49a.09.09,0,0,0,.1-.06.08.08,0,0,0-.06-.1l-2.16-.49a.09.09,0,0,0-.1.06A.09.09,0,0,0,638.29,215.68Z"/><path class="cls-20" d="M637.17,214.4l1.31.57,1.46.69,2.3.39s-.19.33-.19.33c2.81.35,11.68.71,13.13.88.88.09,1.72,1.19,2.26,2l-.72.48s-7.75-.34-7.73-.17.22.82.56,1.82c-4.78.32-11.48.29-12.72-1.68C635.81,218.13,636.81,215.81,637.17,214.4Z"/><path class="cls-11" d="M636.17,201.51c1.66-.23,6.06-.39,6.06-.39s.58.15.4.07c4.85.85,5.38,4.45,5.38,4.45l2.37,10.4,2.64.14c.85,1.62.23,6,.23,6l-12.77,1.44s-2.76.45-5.1-2.54c-1.54-2-2.06-8.06-2.06-12.5C633.32,208.56,633.58,201.87,636.17,201.51Z"/><polygon class="cls-9" points="671.93 209.56 659.77 209.56 655.53 220.36 667.69 220.36 671.93 209.56"/><polygon class="cls-21" points="655.53 220.36 656.17 220.36 660.41 209.56 659.77 209.56 655.53 220.36"/><path class="cls-22" d="M664,214.61c-.17.5,0,1,.28,1.1s.72-.2.89-.7,0-1-.28-1.1S664.15,214.12,664,214.61Z"/><path class="cls-21" d="M651.52,219.49h4.54v.87h-4.54a.44.44,0,0,1-.44-.44h0A.44.44,0,0,1,651.52,219.49Z"/><rect class="cls-9" x="652.67" y="219.78" width="2.87" height="0.14" transform="translate(1308.2 439.71) rotate(180)"/><path class="cls-9" d="M640.46,216.22h0a.08.08,0,0,0,.06-.09c0-.06-1.35-5.73-1.92-9.3a.07.07,0,0,0-.09-.07.1.1,0,0,0-.07.09c.57,3.58,1.91,9.26,1.92,9.31A.1.1,0,0,0,640.46,216.22Z"/><path class="cls-9" d="M648.72,216.13h0s.07-.06.05-.1-2-6.35-2.41-8.52a.08.08,0,0,0-.09-.06.07.07,0,0,0-.07.09c.42,2.18,2.4,8.47,2.42,8.53A.1.1,0,0,0,648.72,216.13Z"/><path class="cls-9" d="M640.67,204.17h.19a.07.07,0,0,0,0-.13,3.39,3.39,0,0,1-3.3-2.25.06.06,0,0,0-.07-.05.07.07,0,0,0-.06.07A3.49,3.49,0,0,0,640.67,204.17Z"/><path class="cls-9" d="M649.29,214.63a.07.07,0,0,0,.09,0l.55-.93v0l-1.83-8a4.82,4.82,0,0,0-1-2,7.15,7.15,0,0,0-5-2.56.1.1,0,0,0-.09.07.08.08,0,0,0,.07.09,7,7,0,0,1,4.85,2.49,4.78,4.78,0,0,1,.93,2h0l1.81,8-.51.87a.09.09,0,0,0,0,.11Z"/><path class="cls-9" d="M652.14,214.66a.08.08,0,0,0,.1,0,.07.07,0,0,0,0-.1l-2.33-.93a.08.08,0,0,0-.11,0,.1.1,0,0,0,0,.11l2.33.93Z"/><path class="cls-11" d="M653,216.18s.84,2,.23,6l-3.08-1.65.91-3Z"/><path class="cls-9" d="M637.68,216.29h0c.11,0,11.52-.35,15.25,0a9.89,9.89,0,0,1,.4,3.83.08.08,0,0,0,.07.08.08.08,0,0,0,.09-.08,9.33,9.33,0,0,0-.43-3.94l0,0h0c-3.69-.31-15.21,0-15.33,0a.1.1,0,0,0-.08.09A.11.11,0,0,0,637.68,216.29Z"/><path class="cls-6" d="M642.89,195.07l.09,3.51s.08,1.13-.9,1.29l.22,1.5a1.18,1.18,0,0,1-.77,1.29,3.09,3.09,0,0,1-.93.17,1.89,1.89,0,0,1-1.87-1.22,16.19,16.19,0,0,1,.13-2.45l-.06-1,0-3.86Z"/><path class="cls-7" d="M639.76,199a2.32,2.32,0,0,0,2.48,2l-.16-1.11A2.26,2.26,0,0,1,639.76,199Z"/><path class="cls-9" d="M640.22,197h0a0,0,0,0,1,0-.07s.64-.68,1.24-.22a.06.06,0,0,1,0,.07,0,0,0,0,1-.07,0c-.53-.4-1.09.19-1.11.22Z"/><path class="cls-9" d="M638.58,196.53l1,.19.19.18a9.62,9.62,0,0,0-.33-2C639.26,194.55,638.58,196.53,638.58,196.53Z"/><path class="cls-9" d="M642.15,196.65h0a0,0,0,0,1,0-.07s.46-.41.75-.18a0,0,0,1,1-.06.08c-.23-.19-.62.16-.62.17Z"/><path d="M641.17,197.15a.14.14,0,0,1-.14.14.13.13,0,0,1-.14-.13A.15.15,0,0,1,641,197,.14.14,0,0,1,641.17,197.15Z"/><path d="M642.67,197a.14.14,0,0,1-.14.14.14.14,0,0,1-.15-.13.15.15,0,0,1,.14-.15A.15.15,0,0,1,642.67,197Z"/><path class="cls-6" d="M640,197.13a.85.85,0,1,1-.87-.82A.84.84,0,0,1,640,197.13Z"/><path class="cls-7" d="M639,197.63a.36.36,0,0,1-.33-.26.32.32,0,0,1,.12-.39.4.4,0,0,1,.44,0,.38.38,0,0,0-.17-.2.47.47,0,0,0-.38,0l0,0s0,0,0,0a.56.56,0,0,1,.41,0,.44.44,0,0,1,.22.3l0,.08-.07-.06a.38.38,0,0,0-.45,0,.3.3,0,0,0-.1.34.31.31,0,0,0,.29.22h0l0,0a0,0,0,0,1,0,0Z"/><path class="cls-7" d="M641.69,198.09a0,0,0,0,1,0,0s0,0,0,0l.46-.17-.18-1.1s0,0,0,0,0,0,0,0l.18,1.14-.5.19Z"/><path class="cls-10" d="M641.34,198.55l.93,0s-.1.38-.44.39A.55.55,0,0,1,641.34,198.55Z"/><path class="cls-9" d="M638.58,196.53s-.32-1.64.16-2.26,3.36-1.78,3.72-1.48,0,.68,0,.68,1.15-.41,1.44.62-2.2,1.52-3.7,1.08A3.34,3.34,0,0,0,638.58,196.53Z"/><path class="cls-9" d="M638.25,223.36c.19.07.37.12.54.17a4.58,4.58,0,0,0,1.7.15.08.08,0,0,0,.07-.1.08.08,0,0,0-.09-.06,4.32,4.32,0,0,1-1.65-.15,6.38,6.38,0,0,1-3.37-2.36c-1.49-1.92-2-7.81-2.05-12.28a.09.09,0,0,0-.08-.08.08.08,0,0,0-.08.08c0,4.5.56,10.43,2.08,12.38A6.86,6.86,0,0,0,638.25,223.36Z"/><path class="cls-4" d="M674,249.81H662.13v-2.42a1.81,1.81,0,0,1,2.18-.56,3,3,0,0,0,3.73-.3l4.35,1.93S674,249,674,249.81Z"/><rect x="662.09" y="247.39" width="0.09" height="2.05"/><path d="M666.09,247.42a1.83,1.83,0,0,0,.27,0l0-.08a3.12,3.12,0,0,1-2-.53l-.05.07A3.26,3.26,0,0,0,666.09,247.42Z"/><rect x="662.89" y="248.54" width="0.09" height="0.67" transform="translate(86.33 659.91) rotate(-56.06)"/><rect x="663.29" y="248.44" width="0.09" height="0.67" transform="matrix(0.56, -0.83, 0.83, 0.56, 86.21, 659.67)"/><path class="cls-23" d="M662.37,249.49h11.92a.21.21,0,0,1,.21.21v.75a.21.21,0,0,1-.21.21H662.37a.52.52,0,0,1-.52-.52V250a.52.52,0,0,1,.52-.52Z" transform="translate(1336.36 500.15) rotate(180)"/><path d="M673.88,249.51l.08,0a2.13,2.13,0,0,0-1.14-.88l-4.76-2.1,0,.08,4.76,2.1A2.13,2.13,0,0,1,673.88,249.51Z"/><path d="M674.32,250.55a.62.62,0,0,0-.4-1.1H662.15a.34.34,0,0,0-.34.34v.58h.09v-.58a.25.25,0,0,1,.25-.25h11.77a.54.54,0,0,1,.54.54.56.56,0,0,1-.19.41Z"/><path class="cls-5" d="M664.74,249.81H652.88v-2.42a1.81,1.81,0,0,1,2.18-.56,3,3,0,0,0,3.73-.3l4.35,1.93S664.74,249,664.74,249.81Z"/><rect x="652.84" y="247.39" width="0.09" height="2.05"/><path d="M656.84,247.42a1.83,1.83,0,0,0,.27,0l0-.08a3.12,3.12,0,0,1-2-.53l-.05.07A3.24,3.24,0,0,0,656.84,247.42Z"/><rect x="653.64" y="248.54" width="0.09" height="0.67" transform="translate(82.24 652.24) rotate(-56.06)"/><rect x="654.04" y="248.44" width="0.09" height="0.67" transform="translate(82.07 651.9) rotate(-56)"/><path class="cls-8" d="M653.12,249.49H665a.21.21,0,0,1,.21.21v.75a.21.21,0,0,1-.21.21H653.12a.52.52,0,0,1-.52-.52V250a.52.52,0,0,1,.52-.52Z" transform="translate(1317.85 500.15) rotate(180)"/><path d="M664.63,249.51l.08,0a2.13,2.13,0,0,0-1.14-.88l-4.76-2.1,0,.08,4.76,2.1A2.13,2.13,0,0,1,664.63,249.51Z"/><path d="M665.07,250.55a.62.62,0,0,0,.22-.47.63.63,0,0,0-.62-.63H652.9a.34.34,0,0,0-.34.34v.58h.09v-.58a.25.25,0,0,1,.25-.25h11.77a.54.54,0,0,1,.54.54.56.56,0,0,1-.19.41Z"/><path class="cls-4" d="M854.66,204.19v77.65c0,2.21-1.14,4-2.56,4H806.23c-1.41,0-2.56-1.79-2.56-4V204.19c0-2.21,1.15-4,2.56-4H852.1C853.52,200.19,854.66,202,854.66,204.19Z"/><path class="cls-5" d="M842.27,204.19v77.65c0,2.21-1.15,4-2.56,4H793.84c-1.41,0-2.56-1.79-2.56-4V204.19c0-2.21,1.15-4,2.56-4h45.87C841.12,200.19,842.27,202,842.27,204.19Z"/><path class="cls-4" d="M818.46,285.78c1.15-1.13,10.12-17,16.33-8.84,0,0,10.14-23,23-18.51,0,0,8.19,4.67,2.24,16.33,0,0,19.83-1.25,19.57,11Z"/><path d="M849.15,261.11a.12.12,0,0,1-.08,0,.09.09,0,0,1,0-.14,11.3,11.3,0,0,1,4.65-2.16.1.1,0,0,1,.11.08.09.09,0,0,1-.09.11,11.47,11.47,0,0,0-4.55,2.13Z"/><path d="M849.15,262.26a.09.09,0,0,1-.08,0,.1.1,0,0,1,0-.14,12.07,12.07,0,0,1,3.72-1.9.1.1,0,0,1,.12.07.09.09,0,0,1-.06.12,12.11,12.11,0,0,0-3.66,1.87Z"/><path class="cls-4" d="M867.33,253.67c-2.29,2.72-2.94,5.91-1.46,7.12s4.53,0,6.82-2.74,2.95-5.92,1.47-7.13S869.62,250.94,867.33,253.67Z"/><path class="cls-4" d="M870.83,264.39c-1.36,1.62-1.75,3.5-.87,4.22s2.68,0,4-1.62,1.75-3.5.87-4.22S872.18,262.78,870.83,264.39Z"/><path class="cls-4" d="M648.14,285.78c-1.15-1.13-10.12-17-16.33-8.84,0,0-10.14-23-23-18.51,0,0-8.19,4.67-2.24,16.33,0,0-19.83-1.25-19.57,11Z"/><path d="M617.45,261.11a.12.12,0,0,0,.08,0,.09.09,0,0,0,0-.14,11.3,11.3,0,0,0-4.65-2.16.1.1,0,0,0-.11.08.1.1,0,0,0,.09.11,11.39,11.39,0,0,1,4.55,2.13Z"/><path d="M617.45,262.26a.09.09,0,0,0,.08,0,.1.1,0,0,0,0-.14,12.35,12.35,0,0,0-3.73-1.9.1.1,0,0,0-.12.07.09.09,0,0,0,.07.12,12.13,12.13,0,0,1,3.65,1.87Z"/><path class="cls-4" d="M599.27,253.67c2.29,2.72,2.94,5.91,1.46,7.12s-4.53,0-6.82-2.74-2.95-5.92-1.47-7.13S597,250.94,599.27,253.67Z"/><path class="cls-4" d="M595.77,264.39c1.36,1.62,1.75,3.5.87,4.22s-2.68,0-4-1.62-1.74-3.5-.87-4.22S594.42,262.78,595.77,264.39Z"/><path class="cls-17" d="M692.47,254.34V282c0,2.12-1.21,3.84-2.71,3.84H641.15c-1.5,0-2.71-1.72-2.71-3.84V254.34c0-2.12,1.21-3.84,2.71-3.84h48.61C691.26,250.5,692.47,252.22,692.47,254.34Z"/><path class="cls-18" d="M679.34,254.34V282c0,2.12-1.21,3.84-2.71,3.84H628c-1.5,0-2.71-1.72-2.71-3.84V254.34c0-2.12,1.21-3.84,2.71-3.84h48.61C678.13,250.5,679.34,252.22,679.34,254.34Z"/><path class="cls-6" d="M731.19,204.93a.38.38,0,0,1,.5-.13l1.1.56a.08.08,0,0,0,.1,0h0a.09.09,0,0,0,0-.14l-1.5-1a.3.3,0,0,1,0-.48h0a.5.5,0,0,1,.59,0l1.53,1.05a.08.08,0,0,0,.11,0l0,0a.08.08,0,0,0,0-.12l-1.44-1.49a.37.37,0,1,1,.53-.53l1.44,1.5a.11.11,0,0,0,.13,0l.07-.07a.09.09,0,0,0,0-.12l-1.15-1.55a.37.37,0,1,1,.59-.45s1.88,2.27,2.21,2.6l.21-1.06a.38.38,0,0,1,.38-.37h0a.38.38,0,0,1,.37.38l.24,2.39c0,.14-.19.32-.39.44a26.54,26.54,0,0,1-2.13,2.29l-1.58-1.74a5.65,5.65,0,0,0-1.6-1.23l-.15-.08A.37.37,0,0,1,731.19,204.93Z"/><polygon class="cls-22" points="751.07 270.06 756.06 270.13 756.13 265.42 751.16 264.8 751.07 270.06"/><path class="cls-24" d="M746.58,271.05h9.57v-2a1.48,1.48,0,0,0-1.76-.45,2.39,2.39,0,0,1-3-.24L747.87,270S746.58,270.38,746.58,271.05Z"/><rect x="756.11" y="269.09" width="0.07" height="1.66"/><path d="M753,269.11h-.22V269a2.48,2.48,0,0,0,1.62-.42l0,.06A2.63,2.63,0,0,1,753,269.11Z"/><rect x="755.23" y="270.26" width="0.54" height="0.07" transform="translate(-22.15 468.02) rotate(-33.95)"/><rect x="754.91" y="270.17" width="0.54" height="0.07" transform="translate(-22.06 468.22) rotate(-33.98)"/><path class="cls-25" d="M746.59,270.79h9.61a.17.17,0,0,1,.17.17v.6a.17.17,0,0,1-.17.17h-9.61a.42.42,0,0,1-.42-.42v-.1a.42.42,0,0,1,.42-.42Z"/><path d="M746.67,270.8l-.06,0a1.7,1.7,0,0,1,.91-.71c.71-.3,3.81-1.68,3.84-1.69l0,.06s-3.13,1.39-3.84,1.69A1.75,1.75,0,0,0,746.67,270.8Z"/><path d="M746.31,271.64a.49.49,0,0,1-.18-.38.51.51,0,0,1,.51-.51h9.5a.28.28,0,0,1,.27.27v.47h-.07V271a.2.2,0,0,0-.2-.2h-9.5a.44.44,0,0,0-.44.44.42.42,0,0,0,.16.33Z"/><polygon class="cls-22" points="760.38 270.06 765.17 270.13 765.24 265.42 760.47 264.8 760.38 270.06"/><path class="cls-24" d="M758.68,229.31c-.16,4.87-.88,23.88-2.39,36.32a1.64,1.64,0,0,1-1.62,1.44,12.86,12.86,0,0,1-3.6-.55,1.62,1.62,0,0,1-1.16-1.54l-.62-37.85a2.45,2.45,0,0,1,0-.27l0-.19a1.64,1.64,0,0,1,2.2-1.28l6.1,2.34A1.62,1.62,0,0,1,758.68,229.31Z"/><path class="cls-11" d="M766.86,228.33s.41,23.39-.67,37.81a1.38,1.38,0,0,1-1.28,1.27,12.55,12.55,0,0,1-4.09-.38,1.38,1.38,0,0,1-1-1.21l-2.9-33.53L755.12,223Z"/><path class="cls-11" d="M755.63,271.05h9.56v-2a1.46,1.46,0,0,0-1.75-.45,2.4,2.4,0,0,1-3-.24l-3.5,1.55S755.63,270.38,755.63,271.05Z"/><rect x="765.16" y="269.09" width="0.07" height="1.66"/><path d="M762,269.11h-.22V269a2.51,2.51,0,0,0,1.63-.42l0,.06A2.66,2.66,0,0,1,762,269.11Z"/><rect x="764.27" y="270.26" width="0.54" height="0.07" transform="translate(-20.61 473.07) rotate(-33.95)"/><rect x="763.95" y="270.17" width="0.54" height="0.07" transform="translate(-20.47 473.44) rotate(-33.99)"/><path class="cls-25" d="M755.63,270.79h9.61a.17.17,0,0,1,.17.17v.6a.17.17,0,0,1-.17.17h-9.61a.42.42,0,0,1-.42-.42v-.1A.42.42,0,0,1,755.63,270.79Z"/><path d="M755.71,270.8l-.06,0a1.76,1.76,0,0,1,.92-.71l3.84-1.69,0,.06-3.84,1.69A1.89,1.89,0,0,0,755.71,270.8Z"/><path d="M755.36,271.64a.46.46,0,0,1-.18-.38.5.5,0,0,1,.5-.51h9.5a.27.27,0,0,1,.27.27v.47h-.07V271a.2.2,0,0,0-.2-.2h-9.5a.44.44,0,0,0-.43.44.41.41,0,0,0,.15.33Z"/><path class="cls-18" d="M748.93,234.16l-.06-.08.3-18.05s-5.54,4-7.2,4.06-8.52-10.84-8.52-10.84a6.42,6.42,0,0,1,4.49-4.05l5.67,6.66,6.64-6.45c.89-.58,7.69-.7,7.69-.7s5.35-.3,6.23.28,6.55,10.16,7.06,14.47,0,7.08-3.07,7.59l-1.12,0-.08,7.08s-6.19,1.49-18,0Z"/><path class="cls-8" d="M737.94,205.2l5.67,6.66,6.64-6.45a9.38,9.38,0,0,1,2.83-.48l4,10.19,6-10.41a4.47,4.47,0,0,1,3.11.85c.89.57,4.51,9.59,5,13.9s0,7.08-3.07,7.59l-1.12,0,.32,7.08s-6.59,1.49-18.43,0l-.06-.08.3-18.05s-5.54,4-7.2,4.06-8.52-10.84-8.52-10.84A6.42,6.42,0,0,1,737.94,205.2Z"/><polygon class="cls-9" points="765.34 220.69 765.47 220.53 764.24 219.41 763.76 213.28 763.57 213.3 764.05 219.51 765.34 220.69"/><path class="cls-9" d="M767,227.18l1.13,0a3.47,3.47,0,0,0,3-2.45,12.27,12.27,0,0,0,.2-5.27l-.19,0c.57,4.86-.29,7-3,7.48L767,227Z"/><path class="cls-9" d="M743.54,213.64l.16-1.73,6.44-6.25a2.29,2.29,0,0,1,1.39-.46V205h0a2.45,2.45,0,0,0-1.53.52l-6.48,6.3-.17,1.81Z"/><path class="cls-9" d="M743.54,211.93l.14-.14-5.7-6.7h-.05a6.75,6.75,0,0,0-4.57,4.11l.18.09a6.6,6.6,0,0,1,4.37-4Z"/><path class="cls-9" d="M756.33,234.88h.18v-.21a72.23,72.23,0,0,1-7.47-.6l.24-19.77h-.19l-.25,19.95h.09C749,234.27,753.65,234.88,756.33,234.88Z"/><path class="cls-9" d="M759.8,208.62a4.91,4.91,0,0,0,2-2.87l-.18-.05a4.74,4.74,0,0,1-1.93,2.74Z"/><path class="cls-6" d="M759.52,197.18a4.39,4.39,0,0,0-2.79-.17,1.89,1.89,0,0,0-1.27,1.79v.78l4-1.73s.64.31.59.21S759.52,197.18,759.52,197.18Z"/><path class="cls-6" d="M755.46,198.71V202s-.05,1.19,1,1.34l-.19,1.58a1.23,1.23,0,0,0,.84,1.33,3.2,3.2,0,0,0,1,.15,2,2,0,0,0,1.93-1.33,17.5,17.5,0,0,0-.2-2.57l0-1.05-.13-4Z"/><path class="cls-9" d="M758.32,200.27h0a0,0,0,0,0,0-.07s-.69-.7-1.31-.2c0,0,0,0,0,.07s0,0,.06,0c.55-.44,1.15.17,1.18.2Z"/><path class="cls-9" d="M756.29,200h0a.06.06,0,0,0,0-.07s-.49-.42-.79-.17a0,0,0,0,0,0,.07,0,0,0,0,0,.07,0c.23-.2.65.16.66.16Z"/><path d="M757.32,200.47a.15.15,0,1,0,.15-.15A.15.15,0,0,0,757.32,200.47Z"/><path d="M755.75,200.32a.15.15,0,1,0,.15-.15A.15.15,0,0,0,755.75,200.32Z"/><path class="cls-9" d="M759.52,197.13a1.57,1.57,0,0,1,1.57,1,3.09,3.09,0,0,1-.23,2c0,.33.21,2.54-1.34,2.37l-.42-3.64.54-1.45Z"/><path class="cls-6" d="M758.55,200.42a.89.89,0,1,0,.89-.89A.89.89,0,0,0,758.55,200.42Z"/><path class="cls-7" d="M759.5,201a.36.36,0,0,0,.35-.27.34.34,0,0,0-.14-.41.41.41,0,0,0-.46,0,.35.35,0,0,1,.17-.22.57.57,0,0,1,.4,0,0,0,0,0,0,0,0s0,0,0,0a.56.56,0,0,0-.43,0,.51.51,0,0,0-.23.33l0,.08.07-.06a.39.39,0,0,1,.47-.06.3.3,0,0,1,.11.35.31.31,0,0,1-.3.24h0l0,0s0,0,0,0Z"/><path class="cls-7" d="M758.85,202.35a2.43,2.43,0,0,1-2.54,2.17l.14-1.16A2.36,2.36,0,0,0,758.85,202.35Z"/><path class="cls-7" d="M756.8,201.47l0,0,0,0-.5-.16.16-1.17,0,0s0,0,0,0l-.16,1.2.53.18Z"/><polygon class="cls-6" points="759.85 202.79 759.67 201.12 759.26 201.17 759.26 202.84 759.85 202.79"/><path class="cls-9" d="M759.1,199s-3.77-.22-4-1.11a.67.67,0,0,1,.66-.9s-.17-1.26,1-.89,3.26.32,3.85,1.38S759.1,199,759.1,199Z"/><path class="cls-9" d="M759.18,199.58l-.16.69-.17-.2a2.76,2.76,0,0,1-.1-1.47c.23-.47,1.12.21,1.12.21Z"/><polygon class="cls-26" points="760 204.23 757.74 205.94 756.31 204.52 755.35 204.79 756.31 207.34 757.67 206.5 759.08 207.43 760.98 204.63 760 204.23"/><path class="cls-10" d="M756.15,201.89l1-.1s-.1.43-.48.47A.6.6,0,0,1,756.15,201.89Z"/><path class="cls-6" d="M750.13,222.9c-.9-.84,0-1,0-1-.44-.51-.34-.74-.18-.85a.41.41,0,0,1,.4,0c.41.17,1.66.69,2.43,1.07.54,0,.37-1,.12-1.53-.12-.26-.13-.68.46-.25a7.65,7.65,0,0,1,1.21,1.51l3-.31-.45,4.47-4-.05a6.9,6.9,0,0,1-2.8-1.13c-1-.9-.35-.94-.35-.94C749.14,222.85,750.13,222.9,750.13,222.9Z"/><path class="cls-7" d="M751.26,222.66a.08.08,0,0,0,.07,0,.08.08,0,0,0,0-.09,7.36,7.36,0,0,1-1.09-.67.06.06,0,0,0-.08,0,.07.07,0,0,0,0,.09,7.4,7.4,0,0,0,1.11.68Z"/><path class="cls-7" d="M751.2,223.51a.08.08,0,0,0,.07,0,.07.07,0,0,0,0-.09,3.94,3.94,0,0,1-1.06-.52.05.05,0,0,0-.08,0,.06.06,0,0,0,0,.09,4.09,4.09,0,0,0,1.1.54Z"/><path class="cls-7" d="M751,224.46a.08.08,0,0,0,.07-.05.07.07,0,0,0,0-.08,3.38,3.38,0,0,1-.92-.51.06.06,0,0,0-.08,0,.06.06,0,0,0,0,.09,3.38,3.38,0,0,0,1,.53Z"/><path class="cls-8" d="M759.38,219.79l-3,.21s-.62,2.08.13,6.31c.07.41.22,1.11.22,1.11s3.1.26,3.58-.82c.31-.67-.36-3.6-.36-3.6Z"/><path class="cls-9" d="M756.6,227.52l10.45-.34V227l-10.28.34c-.15-.65-1.09-5-.36-7.21l7.75-.53v-.21l-7.88.54,0,.06c-.86,2.38.3,7.28.34,7.48Z"/><rect x="758.4" y="235.65" width="0.12" height="29.45" transform="translate(-18.72 66.14) rotate(-4.93)"/><rect x="757.9" y="244.25" width="17.91" height="0.12" transform="translate(514.85 1008.67) rotate(-89.42)"/><rect x="749.54" y="234.88" width="0.12" height="22.39" transform="matrix(1, -0.02, 0.02, 1, -3.9, 12.2)"/><polygon class="cls-22" points="738.94 270.22 734.31 270.29 734.25 266.26 738.86 265.73 738.94 270.22"/><path class="cls-5" d="M743.72,271h-9.56v-2a1.46,1.46,0,0,1,1.75-.46,2.37,2.37,0,0,0,3-.24l3.51,1.56S743.72,270.32,743.72,271Z"/><rect x="734.12" y="269.03" width="0.07" height="1.66"/><path d="M737.35,269.05a.53.53,0,0,0,.21,0V269a2.54,2.54,0,0,1-1.62-.43l0,.06A2.58,2.58,0,0,0,737.35,269.05Z"/><rect x="734.77" y="269.96" width="0.07" height="0.54" transform="translate(100.36 728.97) rotate(-56.06)"/><rect x="735.09" y="269.87" width="0.07" height="0.54" transform="translate(100.18 728.66) rotate(-56.01)"/><path class="cls-25" d="M734.35,270.72H744a.17.17,0,0,1,.17.17v.6a.17.17,0,0,1-.17.17h-9.61a.42.42,0,0,1-.42-.42v-.1a.42.42,0,0,1,.42-.42Z" transform="translate(1478.07 542.38) rotate(180)"/><path d="M743.63,270.74l.07,0a1.75,1.75,0,0,0-.92-.72c-.71-.3-3.81-1.68-3.84-1.69l0,.06s3.13,1.39,3.84,1.69A1.67,1.67,0,0,1,743.63,270.74Z"/><path d="M744,271.58a.53.53,0,0,0,.18-.39.5.5,0,0,0-.51-.5h-9.49a.27.27,0,0,0-.27.27v.47H734V271a.2.2,0,0,1,.2-.2h9.49a.44.44,0,0,1,.44.43.45.45,0,0,1-.15.33Z"/><path class="cls-9" d="M730.73,193.91s-1.19.61-.59,3l.44-.23-.15-1.27Z"/><path class="cls-6" d="M734.88,195.39v3.5s0,1.19-1,1.33l.19,1.58a1.24,1.24,0,0,1-.84,1.33,3.09,3.09,0,0,1-1,.15,2,2,0,0,1-1.91-1.33,16.32,16.32,0,0,1,.2-2.57l0-1,.13-4Z"/><path d="M732,197.14h0s0,0,0-.07.68-.7,1.3-.2a0,0,0,0,1,0,.06,0,0,0,0,1-.07,0c-.55-.44-1.14.17-1.17.19S732.05,197.14,732,197.14Z"/><path d="M734.06,196.84h0a0,0,0,0,1,0-.07s.48-.42.78-.17a.06.06,0,0,1,0,.07,0,0,0,0,1-.07,0c-.23-.2-.65.16-.66.16Z"/><path d="M733,197.34a.15.15,0,0,1-.15.15.15.15,0,0,1,0-.3A.15.15,0,0,1,733,197.34Z"/><path d="M734.59,197.19a.15.15,0,0,1-.14.15.15.15,0,0,1,0-.3A.15.15,0,0,1,734.59,197.19Z"/><path class="cls-6" d="M731.31,197.39a.88.88,0,1,1-.88-.89A.88.88,0,0,1,731.31,197.39Z"/><path class="cls-7" d="M730.37,197.93a.36.36,0,0,1-.35-.27.35.35,0,0,1,.14-.41.41.41,0,0,1,.46,0,.35.35,0,0,0-.17-.22.57.57,0,0,0-.4,0s0,0,0,0,0,0,0,0a.54.54,0,0,1,.43,0,.45.45,0,0,1,.22.32l0,.09-.06-.07a.38.38,0,0,0-.46-.06.31.31,0,0,0-.12.35.31.31,0,0,0,.3.25h0s0,0,0,0,0,0,0,0Z"/><path class="cls-9" d="M735.05,198.33s.32,2.38-1.24,2.46c-2.24.12-2.46-1.17-2.59-2.22l0-2.17.08-.63h0a1.18,1.18,0,0,1,.27.65,8.93,8.93,0,0,0,.29,2C732,198.49,734.7,198.11,735.05,198.33Z"/><path class="cls-7" d="M733.55,198.34a0,0,0,0,1,0,0,0,0,0,0,1,0,0l.49-.16-.15-1.17s0,0,0,0,0,0,0,0l.16,1.2-.53.18Z"/><path class="cls-10" d="M733.17,198.82l1,0s-.12.4-.48.41S733.17,198.82,733.17,198.82Z"/><path class="cls-27" d="M734.2,201.81l-.16-.9a27.56,27.56,0,0,1-3.69-.32l-.14,1.25S732.55,202.92,734.2,201.81Z"/><path class="cls-9" d="M731.26,195.81l-.44-.4-.46,1.1a.7.7,0,0,1,.58.68,3.49,3.49,0,0,0,.71,2.83c1,1.33-.08-2-.09-2.09S731.26,195.81,731.26,195.81Z"/><path class="cls-9" d="M730.73,193.91a3.2,3.2,0,0,1,3.28,0h0a1.61,1.61,0,0,1,.87,2h0a.29.29,0,0,1,0,.09,1.55,1.55,0,0,0-.18-.21l-.52-.41A3,3,0,0,0,733,195a3.84,3.84,0,0,0-1.31.11,5.78,5.78,0,0,0-.06,2.07c.17,1.79-.61-.38-.89-1.21a2,2,0,0,0-.13.53S729.78,194.85,730.73,193.91Z"/><path class="cls-6" d="M734.88,196.37a8.28,8.28,0,0,0,0-.87,4.84,4.84,0,0,0-2.51-.49c-.88.12.82,1.08.84,1.08Z"/><polygon class="cls-6" points="731.84 195.19 731 194.4 731.79 195.56 731.84 195.19"/><polygon class="cls-22" points="729.53 270.22 724.9 270.29 724.84 266.26 729.45 265.73 729.53 270.22"/><path class="cls-6" d="M738.93,234.08c-.65.84-.82,0-.82,0-.39.42-.59.34-.69.2a.37.37,0,0,1,0-.35c.12-.37.49-1.51.76-2.21-.07-.48-.87-.28-1.28,0-.2.13-.56.16-.23-.39a6.09,6.09,0,0,1,1.19-1.15l-.43-2.68,3.74.17s.15,3.08.17,3.55a6.2,6.2,0,0,1-.78,2.54c-.69.9-.76.37-.76.37C738.94,235,738.93,234.08,738.93,234.08Z"/><path class="cls-7" d="M738.67,233.08a.07.07,0,0,0,0-.05.05.05,0,0,0-.07,0,6.94,6.94,0,0,1-.49,1,.06.06,0,0,0,0,.08.05.05,0,0,0,.08,0,5.85,5.85,0,0,0,.5-1Z"/><path class="cls-7" d="M739.37,233.09s0-.05,0-.05a.06.06,0,0,0-.07,0,3.38,3.38,0,0,1-.37,1,.06.06,0,0,0,0,.08s.07,0,.08,0a3.64,3.64,0,0,0,.39-1Z"/><path class="cls-7" d="M740.18,233.23s0,0,0,0a.06.06,0,0,0-.07,0,2.86,2.86,0,0,1-.37.84.06.06,0,0,0,0,.08.06.06,0,0,0,.08,0,3.13,3.13,0,0,0,.39-.89Z"/><path class="cls-22" d="M741.47,228.8l-.07,1.3a3.45,3.45,0,0,1-1.93.42l.32-1.72Z"/><path class="cls-23" d="M731.28,224.83s.56,26.68,2.51,42.08a8.67,8.67,0,0,0,5.86-.71l.14-39.32.47-5.9Z"/><path class="cls-8" d="M724.43,225.09s-1.14,26.3.14,41.8a6.63,6.63,0,0,0,5.74.21l4-37.79L736,219.19Z"/><path d="M727.86,267.69a8.41,8.41,0,0,1-3.33-.72l0,0v0c-1.09-5.91-.4-35.05-.39-35.34a.09.09,0,0,1,.09-.09h0a.09.09,0,0,1,.09.09c0,.29-.7,29.26.38,35.26a7.34,7.34,0,0,0,5.63.19.08.08,0,0,1,.12,0,.09.09,0,0,1,0,.12A6,6,0,0,1,727.86,267.69Z"/><path d="M735.66,267.2a8.51,8.51,0,0,1-1.89-.2.09.09,0,0,1-.07-.11.1.1,0,0,1,.11-.06,9.09,9.09,0,0,0,5.75-.68l.14-35.63a.09.09,0,0,1,.09-.09h0a.09.09,0,0,1,.09.09l-.14,35.74,0,0A9.14,9.14,0,0,1,735.66,267.2Z"/><path class="cls-18" d="M738.58,202.22s2.13.87,2.48,2.55,1.28,22,.64,24h-3.12Z"/><path class="cls-22" d="M723.33,213.94l-.17,13s10.1,2.87,16.63-.56c0,0-1.14-22.89-1.35-23.9-.24-1.19-6.76-1.28-9.47-1,0,0-4.22-.11-6.47,1.13Z"/><path class="cls-18" d="M723.16,210.46l.22,20s5.16,2,7.76.94c0,0,0-29.1-1.08-30-.13,0-2.81.05-4.72.29S723.16,210.46,723.16,210.46Z"/><path class="cls-18" d="M734.38,201.38s.54,26.11,1.08,30a13.28,13.28,0,0,0,4.93-.85s-.5-27.24-1.21-28S734.38,201.38,734.38,201.38Z"/><path class="cls-22" d="M730.41,201.41s3.38-.08,3.94,0a12.66,12.66,0,0,1-.52,1.38c-.07.06-2.26.5-2.26.5s-.74-.44-.78-.59S730.41,201.41,730.41,201.41Z"/><path d="M723.16,217a.1.1,0,0,1-.09-.09v-4.25a.09.09,0,1,1,.18,0v4.25A.1.1,0,0,1,723.16,217Z"/><path d="M731.14,231.46h0a.08.08,0,0,1-.08-.09c0-18.53-.47-25-.47-25a.08.08,0,0,1,.08-.1.1.1,0,0,1,.1.08c0,.07.51,6.51.46,25.05A.09.09,0,0,1,731.14,231.46Z"/><path d="M740.39,230.61h0a.09.09,0,0,1-.09-.09c.18-8.11-1.25-25.66-1.26-25.83a.08.08,0,0,1,.08-.1.1.1,0,0,1,.1.08c0,.18,1.44,17.73,1.26,25.86A.09.09,0,0,1,740.39,230.61Z"/><path d="M734.5,206.62a.09.09,0,0,1-.09-.09l-.12-5.25h.1c.18,0,4.49.37,5.77,1.84a.1.1,0,0,1,0,.13.09.09,0,0,1-.13,0c-1.12-1.3-4.88-1.71-5.54-1.77l.11,5a.11.11,0,0,1-.09.1Z"/><path class="cls-15" d="M716.29,220.15a5.84,5.84,0,0,0-1.55-5.47,11.68,11.68,0,0,0-.62,2.68,8.11,8.11,0,0,0,1.51,4.45A4.39,4.39,0,0,0,716.29,220.15Z"/><path class="cls-9" d="M723.44,203.84l0,0a3.52,3.52,0,0,1,1.56-1.11.06.06,0,0,0,0-.08.07.07,0,0,0-.08,0,3.75,3.75,0,0,0-1.62,1.15.07.07,0,0,0,0,.09Z"/><path class="cls-9" d="M723.55,204.41a.05.05,0,0,0,.05,0,3.72,3.72,0,0,1,1.56-1.11.05.05,0,0,0,0-.07.06.06,0,0,0-.07,0,3.56,3.56,0,0,0-1.62,1.15.05.05,0,0,0,0,.08Z"/><path d="M726,267.48a.09.09,0,0,1-.09-.09l-.15-10.55a.1.1,0,0,1,.08-.1h0a.11.11,0,0,1,.09.09l.15,10.56a.09.09,0,0,1-.09.09Z"/><path d="M735.77,267.2a.08.08,0,0,1-.09-.08l-.59-10.28a.08.08,0,0,1,.08-.09.09.09,0,0,1,.1.08l.59,10.28a.09.09,0,0,1-.09.09Z"/><path class="cls-6" d="M728.3,232.68c1.05.14.59-.57.59-.57.57,0,.66-.18.64-.35a.4.4,0,0,0-.21-.28c-.35-.18-1.41-.74-2.1-1-.29-.39.43-.81.89-.92.23-.06.51-.29-.11-.45a6.58,6.58,0,0,0-1.66,0l-1.57-2.2-2.55,2.74,2.37,2.65a6.32,6.32,0,0,0,2.34,1.26c1.12.16.8-.27.8-.27C728.91,233.31,728.3,232.68,728.3,232.68Z"/><path class="cls-7" d="M727.79,231.78a.06.06,0,0,1,0-.07.06.06,0,0,1,.07,0,8.67,8.67,0,0,0,1.06.37s0,0,0,.06a.06.06,0,0,1-.07,0,5.82,5.82,0,0,1-1.08-.37Z"/><path class="cls-7" d="M727.29,232.28s0,0,0-.07a.06.06,0,0,1,.08,0,3.56,3.56,0,0,0,.95.42.06.06,0,1,1,0,.11,3.16,3.16,0,0,1-1-.44Z"/><path class="cls-7" d="M726.81,233s0,0,0-.07a0,0,0,0,1,.07,0,3.11,3.11,0,0,0,.86.34.06.06,0,0,1,0,.07,0,0,0,0,1-.06,0,2.86,2.86,0,0,1-.9-.36Z"/><path class="cls-18" d="M727,201.58s-4.39-.41-6.58,3.22c-2,3.32-5.81,8-6.29,12.56-.39,3.71,6.57,11.09,8.38,12.86l3.22-3.43s-5.12-8.12-5.52-9.12,7.13-10.79,7.13-10.79Z"/><path class="cls-22" d="M722.58,230.14l.69.77s2.58-2.22,2.76-2.52c0,0-.77-1.11-.77-1.11Z"/><path d="M716.29,211.4l0,0a.08.08,0,0,1,0-.12l4.83-7.47a7,7,0,0,1,5.52-2.29.11.11,0,0,1,.08.1.1.1,0,0,1-.1.08,6.79,6.79,0,0,0-5.37,2.23l-4.81,7.45A.12.12,0,0,1,716.29,211.4Z"/><path d="M718.45,218.32a.09.09,0,1,1,0-.18,4.49,4.49,0,0,0,1.67-.65c.3-1.22,4.51-7.15,4.69-7.41a.09.09,0,0,1,.13,0,.08.08,0,0,1,0,.12c0,.07-4.47,6.3-4.67,7.38v0l0,0A4.81,4.81,0,0,1,718.45,218.32Z"/><path d="M722.5,230.31l-.06,0a.1.1,0,0,1,0-.13c.74-.84,2.83-3,3.17-3.38-1.78-2.75-5.49-9.06-5.49-9.23a.09.09,0,0,1,.09-.09h0a.1.1,0,0,1,.09.07c.1.28,3.58,6.26,5.5,9.21l0,.06-.05,0s-2.42,2.52-3.21,3.43A.09.09,0,0,1,722.5,230.31Z"/><path class="cls-5" d="M734.31,271h-9.57v-2a1.47,1.47,0,0,1,1.76-.46,2.37,2.37,0,0,0,3-.24l3.51,1.56S734.31,270.32,734.31,271Z"/><rect x="724.71" y="269.03" width="0.07" height="1.66"/><path d="M727.94,269.05a.53.53,0,0,0,.21,0V269a2.53,2.53,0,0,1-1.62-.43l0,.06A2.58,2.58,0,0,0,727.94,269.05Z"/><rect x="725.36" y="269.96" width="0.07" height="0.54" transform="translate(96.11 721.03) rotate(-56.05)"/><rect x="725.68" y="269.87" width="0.07" height="0.54" transform="translate(95.94 720.72) rotate(-56)"/><path class="cls-28" d="M724.94,270.72h9.61a.17.17,0,0,1,.17.17v.6a.17.17,0,0,1-.17.17h-9.61a.42.42,0,0,1-.42-.42v-.1a.42.42,0,0,1,.42-.42Z" transform="translate(1459.25 542.38) rotate(180)"/><path d="M734.22,270.74l.07,0a1.75,1.75,0,0,0-.92-.72c-.71-.3-3.81-1.68-3.84-1.69l0,.06s3.13,1.39,3.84,1.69A1.67,1.67,0,0,1,734.22,270.74Z"/><path d="M734.58,271.58a.53.53,0,0,0,.18-.39.5.5,0,0,0-.51-.5h-9.49a.27.27,0,0,0-.27.27v.47h.07V271a.2.2,0,0,1,.2-.2h9.49a.44.44,0,0,1,.44.43.45.45,0,0,1-.15.33Z"/><path d="M628,286c-1.56,0-2.83-1.77-2.83-3.95V254.34c0-2.18,1.27-4,2.83-4h48.61v.23H628c-1.43,0-2.6,1.67-2.6,3.72V282c0,2.05,1.17,3.72,2.6,3.72Z"/><rect x="679.22" y="255.22" width="0.23" height="26.39"/><path d="M692.36,271.62l-.13-17.76a3.62,3.62,0,0,0-.53-1.9,2.6,2.6,0,0,0-2.48-1.34l0-.23a2.81,2.81,0,0,1,2.71,1.45,3.85,3.85,0,0,1,.58,2l.12,17.76Z"/><rect x="687.11" y="281.02" width="4.17" height="0.23" transform="translate(64.29 685.51) rotate(-55.1)"/><rect x="686.84" y="278.61" width="4.17" height="0.23" transform="translate(66.15 684.26) rotate(-55.1)"/><rect x="629.22" y="259.85" width="4.17" height="0.23" transform="translate(56.89 628.98) rotate(-55.1)"/><rect x="628.95" y="257.45" width="4.17" height="0.23" transform="translate(58.74 627.73) rotate(-55.1)"/><rect x="731.7" y="144.74" width="4.17" height="0.23" transform="translate(195.11 663.75) rotate(-55.09)"/><rect x="731.43" y="142.33" width="4.17" height="0.23" transform="translate(197.02 662.56) rotate(-55.1)"/><rect x="777.69" y="185.66" width="4.17" height="0.23" transform="translate(181.25 719.01) rotate(-55.1)"/><rect x="777.41" y="183.26" width="4.17" height="0.23" transform="translate(183.1 717.75) rotate(-55.1)"/><rect x="800.68" y="279.04" width="4.17" height="0.23" transform="matrix(0.57, -0.82, 0.82, 0.57, 114.54, 777.85)"/><rect x="800.4" y="276.63" width="4.17" height="0.23" transform="translate(116.33 776.51) rotate(-55.09)"/><rect x="832.51" y="215.38" width="4.17" height="0.23" transform="translate(180.34 776.69) rotate(-55.1)"/><rect x="832.23" y="212.98" width="4.17" height="0.23" transform="translate(182.19 775.44) rotate(-55.1)"/><path d="M776.1,280.24l-.08-5.7c-.5-2.72-2.49-2.8-2.58-2.8l-13,.11-50-.11v-.23l50,.1,13-.1s2.28.07,2.81,3v0l.08,5.71Z"/><rect x="762.67" y="275.04" width="0.23" height="7.38"/><rect x="710.68" y="281.83" width="0.23" height="2.84" transform="translate(-45.72 397.88) rotate(-30.34)"/><rect x="711" y="280.29" width="0.23" height="2.84" transform="translate(-44.9 397.83) rotate(-30.34)"/><rect x="666.65" y="178.15" width="59.46" height="0.23"/><path class="cls-9" d="M699,149s.52,4.25-.09,4.43,1.58,4.79,2.66,2c.38-1-.94-6.41-2.59-7.25S699,149,699,149Z"/><path class="cls-6" d="M698.94,147.86s1.5,3.77,1.15,4.59a1.09,1.09,0,0,1-.77.59l.6,2.29-2.84.34-1.64-6.51s.4-1.81.42-1.74S698.94,147.86,698.94,147.86Z"/><path class="cls-7" d="M698.88,151.32l0,0a0,0,0,0,1,0,0c.11-.06.13-.28.13-.35a.75.75,0,0,1-.41-.39,1.17,1.17,0,0,1-.06-.63s0,0,0,0,0,0,0,0a1.08,1.08,0,0,0,.05.59.73.73,0,0,0,.4.37h0v0s0,.32-.15.41Z"/><path class="cls-7" d="M699.52,153.82l-.2-.78a5.43,5.43,0,0,1-2.27,0A6.76,6.76,0,0,0,699.52,153.82Z"/><path class="cls-9" d="M696.74,150.46h0a.06.06,0,0,1,0-.07s.48-.82,1.19-.5a.06.06,0,0,1,0,.07.05.05,0,0,1-.07,0c-.61-.29-1,.42-1.05.45Z"/><path class="cls-9" d="M698.77,149.83h0a0,0,0,0,1,0-.07s.36-.52.7-.35a.05.05,0,1,1,0,.1c-.26-.13-.57.3-.58.3A0,0,0,0,1,698.77,149.83Z"/><path d="M697.81,150.48a.15.15,0,0,1-.11.18.15.15,0,0,1-.17-.11.15.15,0,0,1,.1-.17A.15.15,0,0,1,697.81,150.48Z"/><path d="M699.43,150.08a.15.15,0,0,1-.1.17.15.15,0,0,1-.18-.1.16.16,0,0,1,.11-.18A.14.14,0,0,1,699.43,150.08Z"/><path class="cls-10" d="M698.25,151.71l1-.12s-.08.42-.45.47A.6.6,0,0,1,698.25,151.71Z"/><path class="cls-6" d="M697.76,148.22l-.89-.77a6.84,6.84,0,0,1,1.16.46A1.57,1.57,0,0,0,697.76,148.22Z"/><path class="cls-9" d="M695.65,148.25s.54,1.42,4.1.88a2.22,2.22,0,0,0-2.41-2.47c-2.71-.12-2.48,1.88-2.43,1.85S695.65,148.25,695.65,148.25Z"/><path class="cls-9" d="M696.37,149a12.91,12.91,0,0,0-.55,1.87s2.61,5.83.18,6l-.42.1c-2.09.46-1.72-4.38-2.25-6.77-.33-1.51,1.12-3.45,2.52-2.82S696.37,149,696.37,149Z"/><path class="cls-6" d="M696.59,151.43a.8.8,0,0,1-.58,1,.79.79,0,0,1-1-.58.8.8,0,1,1,1.55-.39Z"/><path class="cls-7" d="M695.88,152.12a.34.34,0,0,1-.37-.17.31.31,0,0,1,0-.39.38.38,0,0,1,.41-.1.43.43,0,0,0-.2-.14.52.52,0,0,0-.35.07h0a.06.06,0,0,1,0,0,.6.6,0,0,1,.39-.07.45.45,0,0,1,.27.24l.05.08-.08-.05a.35.35,0,0,0-.42.05.28.28,0,0,0,0,.33.28.28,0,0,0,.32.14s0,0,0,0,0,0,0,0Z"/><path class="cls-9" d="M698.94,147.16s1.52,1,2.11,4.73l-1.69-3.43Z"/><polygon class="cls-6" points="704.09 202.86 699.51 201.43 701.19 196.07 705.95 196.87 704.09 202.86"/><rect class="cls-6" x="699.04" y="182.03" width="4.81" height="5.09" transform="translate(1176.71 -363.34) rotate(116.2)"/><path class="cls-11" d="M697,180c.11,0,4,1.72,4,1.72l1.24.81s-1.89,12.88-2.24,16.32a11.76,11.76,0,0,0,5.51,2s5.72-19.94,5.72-22.48S699,169.85,699,169.85L693.48,173s-8.32.69-10.23,2,14.85,8.89,14.85,8.89Z"/><path class="cls-11" d="M701.25,181.25s-9.39-5.6-12.62-6.48-5.55-.13-5.9.89-.7,3.89,0,4.84,12.95,5.48,15.76,6.25C698.49,186.75,701,183.84,701.25,181.25Z"/><path class="cls-9" d="M682.8,175.59h0a.1.1,0,0,1,0-.12c.25-.49,1.13-.94,2.63-1.34a33.09,33.09,0,0,1,4.21-.76,18.44,18.44,0,0,1,2.32-.17.08.08,0,0,1,0,.12.08.08,0,0,1-.1,0c-.45-.06-8.18.7-8.92,2.2A.09.09,0,0,1,682.8,175.59Zm9-2.25Zm0,0Z"/><path class="cls-9" d="M700.31,184h0a.08.08,0,0,1,0-.12,6.35,6.35,0,0,0,.93-2.73,85.36,85.36,0,0,0-13-6.92.09.09,0,0,1,0-.12.11.11,0,0,1,.12,0,84.81,84.81,0,0,1,13.1,7l0,0v0a6.4,6.4,0,0,1-1,2.86A.09.09,0,0,1,700.31,184Z"/><path class="cls-9" d="M689.81,175a.1.1,0,0,1-.07,0,3.9,3.9,0,0,0-1-.8.11.11,0,0,1,0-.13.1.1,0,0,1,.12,0,4.21,4.21,0,0,1,1,.85.09.09,0,0,1,0,.13Z"/><path class="cls-9" d="M709.13,187.67h0a.09.09,0,0,1-.06-.11c0-.07,1.84-7.6,2.06-8.9s-2.46-3.07-2.48-3.09a.08.08,0,0,1,0-.12.09.09,0,0,1,.13,0c.11.07,2.79,1.9,2.56,3.26s-2,8.84-2.07,8.92A.09.09,0,0,1,709.13,187.67Z"/><path class="cls-9" d="M703.32,183.3l-.05,0-2.16-1.38a.1.1,0,0,1,0-.12.1.1,0,0,1,.13,0l2.16,1.38a.11.11,0,0,1,0,.13A.12.12,0,0,1,703.32,183.3Z"/><path class="cls-9" d="M705.48,201h0c-.16,0-4-.55-5.56-2l0,0v0l1.63-12.11.48-4.31a.1.1,0,0,1,.1-.08.09.09,0,0,1,.08.1l-.48,4.31-1.63,12.06c1.6,1.42,5.39,2,5.43,2a.1.1,0,0,1,.08.1A.09.09,0,0,1,705.48,201Z"/><path class="cls-9" d="M684.07,180.67H684c-1-.75-1-1.39-1-1.42a.09.09,0,1,1,.17,0s0,.58.94,1.26a.1.1,0,0,1,0,.13A.08.08,0,0,1,684.07,180.67Z"/><path class="cls-9" d="M685,180.51h0c-1.11-.59-1.2-1.23-1.2-1.26a.09.09,0,0,1,.08-.1.1.1,0,0,1,.1.08s.09.58,1.1,1.12a.09.09,0,0,1,0,.12A.1.1,0,0,1,685,180.51Z"/><path class="cls-15" d="M700,162.38l-1.73-7.26h-4.71a3.69,3.69,0,0,0-1.22.34c-1.89,1-7.09,6.74-6.83,10.35.24,3.28,5,2.63,9.66,3.39l1-4.35-1.7-.45Z"/><path class="cls-15" d="M698.47,163.45v-8.33h4.72a3.6,3.6,0,0,1,1.21.34c1.9,1,7.75,6.92,7.49,10.53-.24,3.28-5.76,3.15-8.34,3.95l-1.44-5.2.13-.26Z"/><path class="cls-15" d="M706.11,164.58l-.06,9.09s-8.23,1.51-15.55-.44c-.18,0,.34-7.51.34-7.51s0-1.45.77-1.9,7-3.21,7.14-3.21S706.11,164.58,706.11,164.58Z"/><path class="cls-9" d="M698.22,157.64a.08.08,0,0,0,.09-.08.1.1,0,0,0-.08-.1,4.16,4.16,0,0,1-3.6-2,.08.08,0,0,0-.11,0,.09.09,0,0,0,0,.12,4.32,4.32,0,0,0,3.75,2.14Z"/><path class="cls-6" d="M701.2,155.12h-6a3.9,3.9,0,0,0,3.14,1.85A3.1,3.1,0,0,0,701.2,155.12Z"/><path class="cls-29" d="M697.53,167.13a.68.68,0,0,1,0-.86,1.17,1.17,0,0,1,0-.84s1.59.47,2.49.81a1.05,1.05,0,0,0,.69-.33v0c0-.44,0-1,0-1.05s.16-.28.43.06.77,1.23.77,1.23l1.32-.78,1.07,3.71s-3.2.45-3.69.48a6,6,0,0,1-2.71-.79c-.51-.42-.4-.79-.4-.79A.65.65,0,0,1,697.53,167.13Z"/><path class="cls-7" d="M701,164.69v1.14a1.06,1.06,0,0,1-1,.41l-.49-.18.39-1.67Z"/><path class="cls-7" d="M698.58,166.83a.05.05,0,0,0,.06,0,.06.06,0,0,0,0-.07,6.85,6.85,0,0,1-1.07-.51.07.07,0,0,0-.08,0,.06.06,0,0,0,0,.08,7.75,7.75,0,0,0,1.1.51Z"/><path class="cls-7" d="M698.58,167.58s.06,0,.06,0,0-.07,0-.07a3.42,3.42,0,0,1-1-.39.07.07,0,0,0-.08,0,.06.06,0,0,0,0,.08,3.65,3.65,0,0,0,1.07.39Z"/><path class="cls-7" d="M698.45,168.44a.06.06,0,0,0,.06-.05.06.06,0,0,0,0-.07,3.34,3.34,0,0,1-.91-.37.06.06,0,0,0-.08,0,.07.07,0,0,0,0,.09,3.48,3.48,0,0,0,.94.39Z"/><path class="cls-30" d="M702.31,165.46l1.81-.45s1,2.53,1,2.62a23.64,23.64,0,0,1-.57,2.31,6.51,6.51,0,0,1-.65-.61Z"/><path class="cls-9" d="M705.64,163.81l.89-.14a.11.11,0,0,0,.09-.13.1.1,0,0,0-.12-.09l-.76.12L704.06,161a.11.11,0,1,0-.18.12Z"/><path class="cls-9" d="M705.31,157.49a.12.12,0,0,1-.08,0c-.67-1-1.24-1-1.24-1h0a.09.09,0,0,1-.09-.09.11.11,0,0,1,.09-.09h0s.67,0,1.39,1a.08.08,0,0,1,0,.12Z"/><path class="cls-9" d="M705.11,158.39a.08.08,0,0,1-.07,0c-.52-1-1.09-1.14-1.09-1.14a.09.09,0,0,1-.08-.1.09.09,0,0,1,.1-.07s.66.11,1.22,1.23a.08.08,0,0,1,0,.12Z"/><path class="cls-7" d="M700.11,165.62a.08.08,0,0,1-.07,0s0-.07,0-.08a7.26,7.26,0,0,0,1-.72.05.05,0,0,1,.08,0,.06.06,0,0,1,0,.08,7.53,7.53,0,0,1-1,.73Z"/><path class="cls-7" d="M700.26,166.35a.06.06,0,0,1-.07,0,.06.06,0,0,1,0-.08,3.9,3.9,0,0,0,.93-.59.06.06,0,0,1,.08,0,.07.07,0,0,1,0,.09,3.87,3.87,0,0,1-1,.61Z"/><path class="cls-7" d="M700.57,167.16a.06.06,0,0,1-.07,0,.06.06,0,0,1,0-.08,2.88,2.88,0,0,0,.8-.56.06.06,0,0,1,.09,0,.06.06,0,0,1,0,.08,3.59,3.59,0,0,1-.84.58Z"/><path class="cls-9" d="M692.47,163.75l-.9.05a.13.13,0,0,1-.12-.11.11.11,0,0,1,.11-.11l.76,0,1.11-2.88a.11.11,0,0,1,.14-.06.1.1,0,0,1,.06.14Z"/><path class="cls-30" d="M696.25,164.85l-.93,4.47a17.77,17.77,0,0,1-1.92-1.74,20,20,0,0,1,.67-2.28C694.13,165.26,696.25,164.85,696.25,164.85Z"/><path class="cls-9" d="M695.38,169.43h-.1a16.37,16.37,0,0,1-4.84-1.23.11.11,0,1,1,.09-.19,16.75,16.75,0,0,0,4.67,1.2L696,165l-3.64-1.24a.13.13,0,0,1-.07-.14.12.12,0,0,1,.14-.06l3.82,1.3Z"/><path class="cls-9" d="M702.78,169.43h.1a16.37,16.37,0,0,0,4.84-1.23.11.11,0,0,0-.09-.19,16.67,16.67,0,0,1-4.67,1.2l-.8-4.21,3.64-1.24a.11.11,0,0,0,.07-.14.11.11,0,0,0-.14-.06l-3.82,1.3Z"/><path class="cls-22" d="M707.75,207.18l-9.08-4.36.87-1.82a1.56,1.56,0,0,1,1.87.38,2.55,2.55,0,0,0,3,1.15l2.64,3.05S708.05,206.57,707.75,207.18Z"/><rect x="698.32" y="201.74" width="1.71" height="0.07" transform="translate(214.43 744.53) rotate(-64.33)"/><path d="M702.56,202.48l.22.09,0-.07a2.73,2.73,0,0,1-1.35-1.14l-.07,0A2.75,2.75,0,0,0,702.56,202.48Z"/><polygon points="699.74 202.68 699.8 202.64 699.51 202.16 699.45 202.19 699.74 202.68"/><polygon points="700.08 202.75 700.14 202.71 699.85 202.22 699.79 202.26 700.08 202.75"/><path class="cls-9" d="M698.27,204.76h10.14a.17.17,0,0,1,.17.17v.62a.17.17,0,0,1-.17.17H698.27a.43.43,0,0,1-.43-.43v-.11a.43.43,0,0,1,.43-.43Z" transform="translate(1248.14 694.81) rotate(-154.33)"/><path d="M707.78,206.92h.07a1.8,1.8,0,0,0-.55-1.09l-2.89-3.32,0,.05s2.35,2.72,2.89,3.32A1.8,1.8,0,0,1,707.78,206.92Z"/><path d="M707.74,207.86a.47.47,0,0,0,.34-.27.52.52,0,0,0-.25-.7l-9-4.34a.28.28,0,0,0-.37.13l-.21.44.06,0,.21-.44a.21.21,0,0,1,.28-.09l9,4.33a.44.44,0,0,1-.08.84Z"/><rect class="cls-4" x="689.65" y="163.45" width="18.37" height="10.79" rx="4.81" transform="translate(1397.66 337.69) rotate(-180)"/><path class="cls-19" d="M697.91,167.94a.74.74,0,1,1,.73.73A.74.74,0,0,1,697.91,167.94Z"/><rect x="728.61" y="182.79" width="0.23" height="12.62"/><rect x="681.16" y="222.62" width="3.45" height="0.23" transform="translate(25.61 512.45) rotate(-41.85)"/><rect x="682.13" y="224.24" width="3.45" height="0.23" transform="translate(24.79 513.54) rotate(-41.85)"/><path d="M721.79,178.27h-.24V140.83a3.45,3.45,0,0,1,1-2.31,5.55,5.55,0,0,1,4.13-1.4c5.05,0,79.37,0,80.12,0v.23c-.75,0-75.07,0-80.12,0a5.35,5.35,0,0,0-4,1.33,3.25,3.25,0,0,0-.9,2.15Z"/><rect x="793.73" y="148.81" width="0.23" height="51.38"/><path d="M791.4,271.81h-.24V204.19a4.23,4.23,0,0,1,1.3-3.46,3.8,3.8,0,0,1,3-.65h55.46v.23h-55.5a3.66,3.66,0,0,0-2.77.61,4,4,0,0,0-1.21,3.27Z"/><path class="cls-6" d="M837.35,184.34l-1.48.63-1.63.78-2.59.44.22.37c-3.16.39-13.11.8-14.75,1-1,.11-1.93,1.34-2.52,2.29l.8.55s8.69-.38,8.68-.2-.25.92-.63,2c5.36.36,12.88.32,14.28-1.89C838.87,188.53,837.75,185.92,837.35,184.34Z"/><polygon class="cls-6" points="803.82 223.11 810.43 223.2 810.52 217.03 803.94 216.21 803.82 223.11"/><path class="cls-18" d="M824.12,201.33s5.69.09,9.67,0a25.66,25.66,0,0,0,3.09-.11c2.78-.61,3.46-9.27.31-14.57s-14.16,11-14.16,11Z"/><polygon class="cls-6" points="813.84 223.34 820.44 223.44 820.54 217.26 813.96 216.45 813.84 223.34"/><path class="cls-17" d="M818,189.75s-14,.89-14.36,2.5-1.56,18.76-.7,26.07c0,0,5.3.37,7.83-.25l.62-17.83,4.18-.48,9.58-11.52Z"/><path class="cls-18" d="M824.71,189.48s-10.77,3-11.17,4.65-1.55,16.92-.69,24.23c0,0,5.7.33,8.23-.29l.69-16.82,2.45.08,6-10.48Z"/><path class="cls-9" d="M817.67,218.56a9.61,9.61,0,0,0,3.45-.4l.06,0,.66-16.93-1,.49.08.18.75-.35L821,218a13.41,13.41,0,0,1-4.66.33v.2Z"/><path class="cls-9" d="M820,214.91c.27-1,.34-11.15.35-11.58h-.2c0,.11-.08,10.52-.34,11.53Z"/><path class="cls-9" d="M810,200.62a13.71,13.71,0,0,1,3.05-.48V200a13.56,13.56,0,0,0-3.11.48Z"/><path class="cls-9" d="M807.15,218.52a18,18,0,0,0,3.65-.35l.07,0,.62-18-.79.64.12.15.46-.38-.6,17.46a17.54,17.54,0,0,1-3.72.34v.19Z"/><path class="cls-9" d="M809.86,215.29c.26-1.57,0-12.17,0-12.62h-.2c0,.11.27,11,0,12.57Z"/><path class="cls-9" d="M828.4,201.51c2.48,0,5.46-.08,8.8-.33l0-.2a98.35,98.35,0,0,1-16.7,0l0,.2S823.48,201.51,828.4,201.51Z"/><path class="cls-4" d="M825,184.05c-.19,0-7.93,3.33-7.93,3.33l1.56,3,4.34-1Z"/><path class="cls-4" d="M836.2,170.19s3.29-.12,4.86.77c2.34,1.33,1.51,8.93,1.51,8.93s-2-1.08-2.11-1.45S836.2,170.19,836.2,170.19Z"/><path class="cls-9" d="M837,186.69h0l-2.42.55a.09.09,0,1,1,0-.18l2.42-.55a.09.09,0,0,1,.1.07A.08.08,0,0,1,837,186.69Z"/><path class="cls-20" d="M838.26,185.25l-1.47.64-1.64.78s-2.54.44-2.58.43.21.38.21.38c-3.16.39-13.11.8-14.74,1-1,.11-1.93,1.33-2.53,2.29l.81.55s8.69-.39,8.67-.2-.25.92-.63,2.05c5.37.35,12.88.32,14.28-1.89C839.79,189.44,838.67,186.84,838.26,185.25Z"/><path class="cls-4" d="M839.38,170.78c-1.87-.26-6.8-.44-6.8-.44s-.65.18-.44.08c-5.45,1-6,5-6,5l-2.66,11.67-3,.16c-1,1.82-.26,6.71-.26,6.71l14.34,1.62s3.09.51,5.71-2.85c1.74-2.23,2.33-9,2.33-14C842.59,178.69,842.29,171.18,839.38,170.78Z"/><polygon class="cls-11" points="799.24 179.82 812.89 179.82 817.65 191.94 804 191.94 799.24 179.82"/><polygon class="cls-24" points="817.65 191.94 816.93 191.94 812.17 179.82 812.89 179.82 817.65 191.94"/><path class="cls-22" d="M808.16,185.49c.19.56.05,1.11-.31,1.23s-.8-.23-1-.78-.05-1.11.31-1.23S808,184.94,808.16,185.49Z"/><path class="cls-24" d="M822.16,191h-5.1v1h5.1a.49.49,0,0,0,.49-.49h0A.49.49,0,0,0,822.16,191Z"/><rect class="cls-31" x="817.65" y="191.3" width="3.22" height="0.15"/><path class="cls-9" d="M834.57,187.29h-.06a.08.08,0,0,1-.06-.11c0-.06,1.51-6.43,2.15-10.44a.08.08,0,0,1,.1-.07.09.09,0,0,1,.08.1c-.64,4-2.14,10.39-2.16,10.45S834.59,187.28,834.57,187.29Z"/><path class="cls-9" d="M825.3,187.19h-.06a.08.08,0,0,1-.06-.11c0-.07,2.24-7.12,2.71-9.56a.09.09,0,1,1,.17,0c-.46,2.45-2.69,9.51-2.71,9.58A.1.1,0,0,1,825.3,187.19Z"/><path class="cls-9" d="M834.33,173.76l-.21,0a.07.07,0,0,1-.08-.07s0-.07.07-.08c3.11-.22,3.69-2.5,3.7-2.52a.06.06,0,0,1,.08-.06.08.08,0,0,1,.07.08A3.89,3.89,0,0,1,834.33,173.76Z"/><path class="cls-9" d="M824.66,185.51a.09.09,0,0,1-.11,0l-.61-1v0l2-9a5.37,5.37,0,0,1,1.08-2.28,8,8,0,0,1,5.56-2.87.08.08,0,0,1,.1.08.08.08,0,0,1-.07.1,7.82,7.82,0,0,0-5.44,2.79,5.34,5.34,0,0,0-1.05,2.21h0l-2,9,.58,1a.09.09,0,0,1,0,.12Z"/><path class="cls-9" d="M821.46,185.54a.09.09,0,1,1-.07-.17l2.62-1a.08.08,0,0,1,.11,0,.09.09,0,0,1,0,.12l-2.61,1Z"/><path class="cls-4" d="M820.47,187.25s-1,2.24-.26,6.71l3.46-1.85-1-3.35Z"/><path class="cls-9" d="M837.69,187.38h0c-.13,0-12.94-.39-17.13,0a11.29,11.29,0,0,0-.44,4.29.1.1,0,0,1-.09.1.09.09,0,0,1-.09-.09,10.5,10.5,0,0,1,.48-4.42l0-.05h.05c4.14-.35,17.07,0,17.2,0a.09.09,0,0,1,.09.09A.1.1,0,0,1,837.69,187.38Z"/><path class="cls-6" d="M831.84,163.55l-.1,3.94s-.09,1.27,1,1.46l-.25,1.68a1.31,1.31,0,0,0,.87,1.44,3.45,3.45,0,0,0,1,.19,2.1,2.1,0,0,0,2.09-1.37,17.33,17.33,0,0,0-.14-2.75l.07-1.11,0-4.33Z"/><path class="cls-7" d="M835.35,167.94s-.13,2.11-2.78,2.25l.18-1.24A2.55,2.55,0,0,0,835.35,167.94Z"/><path class="cls-9" d="M834.84,165.7h0a.06.06,0,0,0,0-.08s-.71-.77-1.39-.25a0,0,0,0,0,0,.07,0,0,0,0,0,.07,0c.6-.45,1.23.21,1.25.24Z"/><path class="cls-9" d="M836.67,165.19l-1.14.21-.21.21a11.1,11.1,0,0,1,.37-2.28C835.91,163,836.67,165.19,836.67,165.19Z"/><path class="cls-9" d="M832.67,165.33a.05.05,0,0,0,0,0s0-.06,0-.07-.51-.47-.84-.2a.05.05,0,0,0,.07.08c.25-.21.7.19.7.19Z"/><path d="M833.77,165.89a.16.16,0,0,0,.15.16.16.16,0,0,0,.16-.16.15.15,0,0,0-.15-.16A.16.16,0,0,0,833.77,165.89Z"/><path d="M832.09,165.68a.16.16,0,1,0,.32,0,.16.16,0,0,0-.16-.16A.16.16,0,0,0,832.09,165.68Z"/><path class="cls-6" d="M835.08,165.86a.94.94,0,0,0,.92,1,1,1,0,1,0,0-1.9A1,1,0,0,0,835.08,165.86Z"/><path class="cls-7" d="M836.18,166.42a.39.39,0,0,0,.38-.29.36.36,0,0,0-.14-.43.44.44,0,0,0-.5,0,.46.46,0,0,1,.2-.23.52.52,0,0,1,.42,0l0,0s0,0,0,0a.62.62,0,0,0-.46,0,.54.54,0,0,0-.26.34l0,.1.07-.07a.41.41,0,0,1,.5,0,.32.32,0,0,1,.12.38.35.35,0,0,1-.33.25h0s0,0,0,0,0,0,0,0Z"/><path class="cls-7" d="M833.18,166.94l0,0s0,0,0,0l-.52-.19.2-1.24s0,0,0,0,0,0,0,0l-.21,1.28.56.21Z"/><path class="cls-10" d="M833.58,167.46l-1.05-.05s.12.43.5.45A.61.61,0,0,0,833.58,167.46Z"/><path class="cls-9" d="M836.67,165.19s.37-1.84-.18-2.54-3.76-2-4.17-1.66,0,.76,0,.76-1.29-.45-1.61.7,2.46,1.71,4.15,1.21A3.78,3.78,0,0,1,836.67,165.19Z"/><path class="cls-9" d="M837,195.31c-.21.08-.41.14-.59.19a5.27,5.27,0,0,1-1.92.17.09.09,0,0,1-.07-.11.08.08,0,0,1,.1-.07,4.91,4.91,0,0,0,1.85-.17,7.13,7.13,0,0,0,3.78-2.65c1.68-2.15,2.29-8.76,2.31-13.78a.09.09,0,0,1,.18,0c0,5-.64,11.71-2.34,13.89A7.72,7.72,0,0,1,837,195.31Z"/><path class="cls-32" d="M810.89,224l-5.61,1-2.73-2-3.7,3.25-.9.17a.65.65,0,1,0,.22,1.28l13-2.43a.18.18,0,0,0,.14-.21l-.16-.85A.27.27,0,0,0,810.89,224Z"/><path class="cls-23" d="M810.84,224l-.43-2.3a2,2,0,0,0-2.5-.18,3.28,3.28,0,0,1-4.15.44l-4.37,3s-1.22.68-1.44,1.44Z"/><rect x="810.58" y="221.69" width="0.1" height="2.33" transform="translate(-27.11 152.36) rotate(-10.56)"/><path d="M806.08,222.54a1.48,1.48,0,0,1-.29,0v-.1a3.44,3.44,0,0,0,2.1-1l.07.07A3.67,3.67,0,0,1,806.08,222.54Z"/><polygon points="809.6 223.8 809.53 223.73 810.07 223.21 810.13 223.27 809.6 223.8"/><rect x="809" y="223.42" width="0.75" height="0.1" transform="translate(75.89 632.16) rotate(-44.56)"/><path d="M797.7,227.66a.73.73,0,0,1-.34-.48.69.69,0,0,1,.56-.81L810.81,224a.38.38,0,0,1,.44.3l.12.64-.1,0-.12-.64a.27.27,0,0,0-.32-.22l-12.89,2.4a.6.6,0,0,0-.48.7.57.57,0,0,0,.29.41Z"/><path d="M798,226.43l-.1,0a2.43,2.43,0,0,1,1.07-1.2c.88-.59,4.74-3.24,4.78-3.27l.06.08s-3.91,2.68-4.79,3.27A2.3,2.3,0,0,0,798,226.43Z"/><path class="cls-15" d="M820.78,224l-5.66.67-2.59-2.23-3.91,3-.91.11a.66.66,0,0,0-.59.59.65.65,0,0,0,.72.7L821,225.28a.17.17,0,0,0,.16-.19l-.1-.86A.27.27,0,0,0,820.78,224Z"/><path class="cls-8" d="M820.73,224l-.27-2.33a2,2,0,0,0-2.48-.34,3.29,3.29,0,0,1-4.17.15l-4.56,2.7s-1.27.6-1.54,1.35Z"/><rect x="820.55" y="221.68" width="0.1" height="2.33" transform="translate(-20.38 97.13) rotate(-6.69)"/><path d="M816.09,222.23l-.3,0v-.1a3.42,3.42,0,0,0,2.16-.84l.06.07A3.53,3.53,0,0,1,816.09,222.23Z"/><rect x="819.39" y="223.39" width="0.75" height="0.1" transform="translate(52.15 587.73) rotate(-40.63)"/><rect x="818.94" y="223.33" width="0.75" height="0.1" transform="translate(52.41 588.11) rotate(-40.69)"/><path d="M807.38,226.77a.69.69,0,0,1,.31-1.27l13-1.53a.36.36,0,0,1,.41.33l.08.64h-.1l-.07-.64a.28.28,0,0,0-.31-.24l-13,1.52a.6.6,0,0,0-.27,1.1Z"/><path d="M807.74,225.56l-.09,0a2.3,2.3,0,0,1,1.14-1.13c.92-.53,5-2.91,5-2.94l.05.09s-4.07,2.41-5,2.93A2.4,2.4,0,0,0,807.74,225.56Z"/><rect x="842.15" y="210.54" width="0.23" height="46.21"/><rect x="854.55" y="204.19" width="0.23" height="29.4"/><rect class="cls-33" x="577.81" y="285.58" width="330.02" height="0.95"/><path class="cls-34" d="M65.71,120.24a9,9,0,0,1-3.64-7.17H71a3.34,3.34,0,0,0,.94,2.31,3,3,0,0,0,2.1.73,3,3,0,0,0,1.9-.58,1.9,1.9,0,0,0,.75-1.6,2.27,2.27,0,0,0-1.24-2.06,22.57,22.57,0,0,0-4-1.62,35.51,35.51,0,0,1-4.77-1.91,9.18,9.18,0,0,1-3.17-2.69A7.49,7.49,0,0,1,62.15,101a8.44,8.44,0,0,1,1.46-5,9.09,9.09,0,0,1,4-3.15,15.06,15.06,0,0,1,5.82-1.07,13.29,13.29,0,0,1,8.41,2.46,8.84,8.84,0,0,1,3.36,6.91H76.1a2.65,2.65,0,0,0-.83-2,3,3,0,0,0-2-.68A2.17,2.17,0,0,0,71.7,99a2.06,2.06,0,0,0-.6,1.59,1.94,1.94,0,0,0,.66,1.47,5.88,5.88,0,0,0,1.65,1.07q1,.45,2.91,1.14a35.31,35.31,0,0,1,4.73,1.94,9.74,9.74,0,0,1,3.21,2.7,6.92,6.92,0,0,1,1.34,4.39,8.87,8.87,0,0,1-1.34,4.83,9.26,9.26,0,0,1-3.9,3.38,13.55,13.55,0,0,1-6,1.24A14.11,14.11,0,0,1,65.71,120.24Z"/><path class="cls-34" d="M112.22,92.27V99h-8v23.49H95.79V99h-8V92.27Z"/><path class="cls-34" d="M134.43,117.52h-10.7l-1.62,4.92h-8.82l11-30.17H134l10.95,30.17h-8.85Zm-2.1-6.42-3.25-9.75-3.21,9.75Z"/><path class="cls-34" d="M162.93,122.44l-6-11.12H156v11.12h-8.39V92.27h13.23A13.72,13.72,0,0,1,167,93.54,8.86,8.86,0,0,1,170.85,97a9.71,9.71,0,0,1,1.28,5,9,9,0,0,1-1.69,5.41,9.12,9.12,0,0,1-4.94,3.31l6.8,11.77ZM156,105.58h4.15a3.62,3.62,0,0,0,2.57-.81,3.09,3.09,0,0,0,.85-2.35,3,3,0,0,0-.87-2.29,3.56,3.56,0,0,0-2.55-.84H156Z"/><path class="cls-34" d="M198.66,92.27V99h-8v23.49h-8.39V99h-8V92.27Z"/><path class="cls-34" d="M233.43,109.58a7.45,7.45,0,0,1,1.56,4.65,7.38,7.38,0,0,1-2.65,6c-1.77,1.46-4.25,2.18-7.45,2.18H210V92.27h14.46a11.49,11.49,0,0,1,7.25,2.06,6.89,6.89,0,0,1,2.64,5.77,7,7,0,0,1-1.39,4.43,6.92,6.92,0,0,1-3.71,2.42A7.13,7.13,0,0,1,233.43,109.58Zm-15.09-5.32h4.24c2.11,0,3.17-.87,3.17-2.61s-1.06-2.7-3.17-2.7h-4.24Zm8,8.77a2.67,2.67,0,0,0-.83-2.1,3.55,3.55,0,0,0-2.38-.73h-4.84v5.48h4.88C225.33,115.68,226.39,114.8,226.39,113Z"/><path class="cls-34" d="M246.89,92.27v17.51a5.59,5.59,0,0,0,1.13,3.76,4.28,4.28,0,0,0,3.45,1.33,4.36,4.36,0,0,0,3.48-1.35,5.48,5.48,0,0,0,1.18-3.74V92.27h8.39v17.51a13.57,13.57,0,0,1-1.76,7.08,11.27,11.27,0,0,1-4.77,4.41,15.07,15.07,0,0,1-6.7,1.47,14.24,14.24,0,0,1-6.56-1.47,10.79,10.79,0,0,1-4.54-4.39,14.2,14.2,0,0,1-1.65-7.1V92.27Z"/><path class="cls-34" d="M277.53,92.27v30.17h-8.39V92.27Z"/><path class="cls-34" d="M290.71,116h9.37v6.42H282.32V92.27h8.39Z"/><path class="cls-34" d="M323.59,94.18a13.33,13.33,0,0,1,5.5,5.33,16.69,16.69,0,0,1,0,15.62,13.85,13.85,0,0,1-5.52,5.37,17.11,17.11,0,0,1-8.28,1.94H303.33V92.27h11.94A17.41,17.41,0,0,1,323.59,94.18ZM320.4,113a7.51,7.51,0,0,0,2.1-5.69,7.64,7.64,0,0,0-2.1-5.76,8,8,0,0,0-5.77-2h-2.91V115h2.91A8,8,0,0,0,320.4,113Z"/><path class="cls-34" d="M343.17,92.27v30.17h-8.39V92.27Z"/><path class="cls-34" d="M375.91,122.44h-8.39l-11.17-16.86v16.86H348V92.27h8.39l11.17,17.08V92.27h8.39Z"/><path class="cls-34" d="M400,102.2a4.78,4.78,0,0,0-2-1.84,6.44,6.44,0,0,0-3-.64,6.3,6.3,0,0,0-5,2,8,8,0,0,0-1.82,5.52,8.27,8.27,0,0,0,1.94,5.93,7.48,7.48,0,0,0,5.67,2,6.45,6.45,0,0,0,6.29-4h-8.43v-6h15.67v8.13a15.28,15.28,0,0,1-2.89,4.49,14.84,14.84,0,0,1-4.82,3.45,15.58,15.58,0,0,1-6.63,1.35,16.15,16.15,0,0,1-8-2,13.44,13.44,0,0,1-5.39-5.44,17.52,17.52,0,0,1,0-15.91A13.52,13.52,0,0,1,387,93.92a16,16,0,0,1,8-2,15.5,15.5,0,0,1,9.41,2.74A11.66,11.66,0,0,1,409,102.2Z"/><path class="cls-34" d="M90.4,143.62,79.78,164.21v9.58H71.35v-9.58L60.74,143.62h9.59l5.3,11.64,5.31-11.64Z"/><path class="cls-34" d="M99.64,172.1A14.77,14.77,0,0,1,94,166.58a16.42,16.42,0,0,1,0-16,14.79,14.79,0,0,1,5.63-5.5,16.43,16.43,0,0,1,15.6,0,14.66,14.66,0,0,1,5.58,5.5,16.49,16.49,0,0,1,0,16,14.63,14.63,0,0,1-5.6,5.52,16.24,16.24,0,0,1-15.58,0Zm12.86-7.89a9.48,9.48,0,0,0,0-11.28,7.27,7.27,0,0,0-10.16,0,8.25,8.25,0,0,0-1.84,5.67,8.16,8.16,0,0,0,1.84,5.63,7.22,7.22,0,0,0,10.16,0Z"/><path class="cls-34" d="M134.86,143.62v17.51a5.65,5.65,0,0,0,1.13,3.76,4.28,4.28,0,0,0,3.45,1.33,4.36,4.36,0,0,0,3.48-1.35,5.47,5.47,0,0,0,1.18-3.74V143.62h8.39v17.51a13.52,13.52,0,0,1-1.76,7.08,11.27,11.27,0,0,1-4.77,4.41,15.06,15.06,0,0,1-6.69,1.47,14.25,14.25,0,0,1-6.57-1.47,10.79,10.79,0,0,1-4.54-4.39,14.2,14.2,0,0,1-1.65-7.1V143.62Z"/><path class="cls-34" d="M172.39,173.79l-6-11.12h-.9v11.12h-8.39V143.62h13.22a13.66,13.66,0,0,1,6.16,1.27,8.75,8.75,0,0,1,3.81,3.46,9.62,9.62,0,0,1,1.29,5,9,9,0,0,1-1.69,5.41,9.21,9.21,0,0,1-5,3.32l6.81,11.76Zm-6.89-16.86h4.15a3.59,3.59,0,0,0,2.56-.81,3.06,3.06,0,0,0,.86-2.35,3,3,0,0,0-.88-2.29,3.52,3.52,0,0,0-2.54-.84H165.5Z"/><path class="cls-34" d="M194.4,150.71a13.32,13.32,0,0,1,5.29-5.44,15.7,15.7,0,0,1,7.87-1.94,14.93,14.93,0,0,1,9.5,3,13.73,13.73,0,0,1,5,8.2h-9a5.88,5.88,0,0,0-5.57-3.51,5.75,5.75,0,0,0-4.64,2.07,9.82,9.82,0,0,0,0,11.13,5.75,5.75,0,0,0,4.64,2.08A5.88,5.88,0,0,0,213,162.8h9a13.71,13.71,0,0,1-5,8.19,14.94,14.94,0,0,1-9.5,3,15.6,15.6,0,0,1-7.87-1.95,13.36,13.36,0,0,1-5.29-5.43,18,18,0,0,1,0-15.92Z"/><path class="cls-34" d="M245.09,168.87h-10.7l-1.62,4.92H224l11-30.17h9.67l10.95,30.17h-8.85Zm-2.1-6.42-3.25-9.75-3.21,9.75Z"/><path class="cls-34" d="M273.59,173.79l-6-11.12h-.9v11.12h-8.39V143.62h13.23a13.72,13.72,0,0,1,6.16,1.27,8.86,8.86,0,0,1,3.81,3.46,9.71,9.71,0,0,1,1.28,5,9,9,0,0,1-1.69,5.41,9.18,9.18,0,0,1-4.94,3.32l6.8,11.76Zm-6.89-16.86h4.15a3.62,3.62,0,0,0,2.57-.81,3.09,3.09,0,0,0,.85-2.35,3,3,0,0,0-.87-2.29,3.56,3.56,0,0,0-2.55-.84H266.7Z"/><path class="cls-34" d="M295,150.34v4.92h9.62v6.38H295v5.44H305.9v6.71H286.6V143.62h19.3v6.72Z"/><path class="cls-34" d="M318.44,150.34v4.92h9.62v6.38h-9.62v5.44h10.91v6.71h-19.3V143.62h19.3v6.72Z"/><path class="cls-34" d="M348.77,173.79l-6-11.12h-.89v11.12H333.5V143.62h13.22a13.66,13.66,0,0,1,6.16,1.27,8.75,8.75,0,0,1,3.81,3.46,9.62,9.62,0,0,1,1.29,5,9,9,0,0,1-1.69,5.41,9.21,9.21,0,0,1-5,3.32l6.81,11.76Zm-6.88-16.86H346a3.59,3.59,0,0,0,2.56-.81,3.1,3.1,0,0,0,.86-2.35,3,3,0,0,0-.88-2.29,3.52,3.52,0,0,0-2.54-.84h-4.15Z"/><path class="cls-34" d="M105.46,195l-7.4,30.17H87.74l-4.15-18.49-4.23,18.49H69L61.73,195H70.8l3.51,20.62L79.06,195h9.2l4.62,20.45L96.39,195Z"/><path class="cls-34" d="M117.4,195v30.17H109V195Z"/><path class="cls-34" d="M144.91,195v6.67h-8v23.5h-8.39v-23.5h-8V195Z"/><path class="cls-34" d="M175,195v30.17h-8.39V213H156.43v12.11H148V195h8.39v11.34h10.22V195Z"/><path class="cls-34" d="M196.22,195v17.5a5.62,5.62,0,0,0,1.14,3.77,4.28,4.28,0,0,0,3.44,1.32,4.39,4.39,0,0,0,3.49-1.35,5.52,5.52,0,0,0,1.18-3.74V195h8.38v17.5a13.52,13.52,0,0,1-1.75,7.08,11.21,11.21,0,0,1-4.77,4.41,15.11,15.11,0,0,1-6.7,1.48,14.31,14.31,0,0,1-6.57-1.48,10.84,10.84,0,0,1-4.54-4.39,14.28,14.28,0,0,1-1.64-7.1V195Z"/><path class="cls-34" d="M221.21,222.94a9.09,9.09,0,0,1-3.64-7.17h9a3.3,3.3,0,0,0,.94,2.31,3.39,3.39,0,0,0,4,.15,1.9,1.9,0,0,0,.75-1.6,2.26,2.26,0,0,0-1.24-2,21.7,21.7,0,0,0-4-1.63,35.51,35.51,0,0,1-4.77-1.91,9.1,9.1,0,0,1-3.17-2.69,7.45,7.45,0,0,1-1.35-4.64,8.49,8.49,0,0,1,1.46-5,8.94,8.94,0,0,1,4-3.14,14.88,14.88,0,0,1,5.82-1.07,13.29,13.29,0,0,1,8.41,2.46,8.89,8.89,0,0,1,3.36,6.91h-9.12a2.73,2.73,0,0,0-.83-2.06,3,3,0,0,0-2-.68,2.19,2.19,0,0,0-1.54.56,2,2,0,0,0-.6,1.58,1.92,1.92,0,0,0,.67,1.47,5.67,5.67,0,0,0,1.65,1.07c.65.3,1.62.68,2.9,1.14a34.66,34.66,0,0,1,4.73,1.95,9.71,9.71,0,0,1,3.21,2.69,6.94,6.94,0,0,1,1.35,4.39,8.83,8.83,0,0,1-1.35,4.83,9.16,9.16,0,0,1-3.89,3.38,13.55,13.55,0,0,1-6,1.25A14.17,14.17,0,0,1,221.21,222.94Z"/></g></g></svg>