<svg id="Layer_1" data-name="Layer 1" xmlns="http://www.w3.org/2000/svg" viewBox="0 0 1000 330"><defs><style>.cls-1{stroke:#000;}.cls-1,.cls-4,.cls-5{stroke-miterlimit:10;}.cls-2{fill:#dfb059;}.cls-3{fill:#fff;}.cls-4,.cls-5{fill:none;stroke:#fff;}.cls-5{stroke-width:2px;}</style></defs><rect class="cls-1" width="1000" height="330"/><path class="cls-2" d="M377.59,194.18V221.9H213V54H193.32V71.7H175.6V88.42H158.88V276H346.49V259.31H363.2V241.58h17.73V222.34c5.44-5.31,21.08-21.11,26.45-26.55l1.6-1.61ZM343.51,273H161.86V91.39H175.6V259.31H343.51Zm16.72-16.71H178.57V74.68h14.75v166.9H360.23ZM378,238.61H196.3V57H210V224.87H377.59v.2l.3-.2H378Z"/><path class="cls-3" d="M248.46,69.7V84.47a7,7,0,0,1-1.93,5.28,7.17,7.17,0,0,1-5.2,1.86,7.71,7.71,0,0,1-5.51-2,7.22,7.22,0,0,1-2.07-5.53H239a3.21,3.21,0,0,0,.55,2.05,1.94,1.94,0,0,0,1.61.7,1.84,1.84,0,0,0,1.48-.62,2.69,2.69,0,0,0,.53-1.79V69.7Z"/><path class="cls-3" d="M257.92,69.7v13a4.28,4.28,0,0,0,1,3,3.58,3.58,0,0,0,2.81,1.06,3.67,3.67,0,0,0,2.84-1.06,4.2,4.2,0,0,0,1-3v-13h5.29v13a9.25,9.25,0,0,1-1.24,4.91,7.89,7.89,0,0,1-3.32,3,10.44,10.44,0,0,1-4.65,1,10.19,10.19,0,0,1-4.59-1,7.51,7.51,0,0,1-3.2-3,9.72,9.72,0,0,1-1.17-4.93v-13Z"/><path class="cls-3" d="M299.08,69.7V91.39H293.8v-13l-4.85,13h-4.27l-4.88-13v13h-5.29V69.7h6.25l6.09,15,6-15Z"/><path class="cls-3" d="M318.55,80.13a6.31,6.31,0,0,1-2.66,2.52,9.43,9.43,0,0,1-4.45.95h-3.27v7.79h-5.29V69.7h8.56a9.81,9.81,0,0,1,4.39.89,6.18,6.18,0,0,1,2.69,2.48,7.14,7.14,0,0,1,.9,3.61A7,7,0,0,1,318.55,80.13Zm-5.25-1.44a2.66,2.66,0,0,0,.74-2,2.69,2.69,0,0,0-.74-2A3.19,3.19,0,0,0,311,74h-2.87V79.4H311A3.19,3.19,0,0,0,313.3,78.69Z"/><path class="cls-3" d="M332.3,90.84a7,7,0,0,1-3-2.29,6.27,6.27,0,0,1-1.19-3.65h5.63a2.72,2.72,0,0,0,.83,1.84,2.68,2.68,0,0,0,1.85.63,2.92,2.92,0,0,0,1.86-.54,1.82,1.82,0,0,0,.68-1.5,1.76,1.76,0,0,0-.54-1.32,4.51,4.51,0,0,0-1.33-.87,21.28,21.28,0,0,0-2.24-.77,24.13,24.13,0,0,1-3.43-1.3,6.26,6.26,0,0,1-2.29-1.92,5.3,5.3,0,0,1-1-3.3,5.69,5.69,0,0,1,2.2-4.75,9,9,0,0,1,5.71-1.71,9.14,9.14,0,0,1,5.78,1.71,6.13,6.13,0,0,1,2.35,4.78h-5.72a2.24,2.24,0,0,0-.77-1.66,2.72,2.72,0,0,0-1.82-.6,2.28,2.28,0,0,0-1.55.51,1.84,1.84,0,0,0-.58,1.47,1.82,1.82,0,0,0,1,1.64,15.66,15.66,0,0,0,3.09,1.26,30.44,30.44,0,0,1,3.41,1.36,6.61,6.61,0,0,1,2.27,1.89,5,5,0,0,1,1,3.18,6.23,6.23,0,0,1-.94,3.37,6.61,6.61,0,0,1-2.74,2.41,9.29,9.29,0,0,1-4.23.9A11.28,11.28,0,0,1,332.3,90.84Z"/><path class="cls-3" d="M363.33,69.7v4.23h-5.75V91.39H352.3V73.93h-5.75V69.7Z"/><path class="cls-3" d="M379.49,87.56H371.4l-1.3,3.83h-5.53l7.85-21.69h6.11l7.85,21.69h-5.59Zm-1.36-4.08-2.69-7.94-2.65,7.94Z"/><path class="cls-3" d="M399.83,91.39l-4.52-8.19h-1.26v8.19h-5.29V69.7h8.87a9.91,9.91,0,0,1,4.38.89,6.23,6.23,0,0,1,2.7,2.46,6.84,6.84,0,0,1,.9,3.48,6.41,6.41,0,0,1-1.23,3.86,6.54,6.54,0,0,1-3.6,2.41l5,8.59Zm-5.78-11.93h3.27a3,3,0,0,0,2.18-.71,2.65,2.65,0,0,0,.73-2,2.56,2.56,0,0,0-.73-1.94,3,3,0,0,0-2.18-.71h-3.27Z"/><path class="cls-3" d="M424.52,69.7v4.23h-5.75V91.39h-5.28V73.93h-5.75V69.7Z"/><path class="cls-3" d="M253.47,106.78,246,121.31v7.17h-5.28v-7.17l-7.51-14.53h6l4.21,9.09,4.17-9.09Z"/><path class="cls-3" d="M260.25,127.27a10.55,10.55,0,0,1-4-4,11.68,11.68,0,0,1,0-11.45,10.6,10.6,0,0,1,4-4,11.79,11.79,0,0,1,11.22,0,10.47,10.47,0,0,1,4,4,11.81,11.81,0,0,1,0,11.45,10.54,10.54,0,0,1-4,4,11.77,11.77,0,0,1-11.21,0Zm9.77-5.13a7.5,7.5,0,0,0,0-9.16,5.34,5.34,0,0,0-4.16-1.72,5.44,5.44,0,0,0-4.19,1.7,7.56,7.56,0,0,0,0,9.2,5.41,5.41,0,0,0,4.19,1.71A5.34,5.34,0,0,0,270,122.14Z"/><path class="cls-3" d="M285.08,106.78v13a4.29,4.29,0,0,0,1,3,3.62,3.62,0,0,0,2.81,1,3.73,3.73,0,0,0,2.85-1,4.21,4.21,0,0,0,1-3v-13H298v13a9.13,9.13,0,0,1-1.24,4.91,7.89,7.89,0,0,1-3.32,3,10.44,10.44,0,0,1-4.65,1,10.19,10.19,0,0,1-4.59-1,7.53,7.53,0,0,1-3.2-3,9.7,9.7,0,0,1-1.17-4.93v-13Z"/><path class="cls-3" d="M312.74,128.48l-4.51-8.19H307v8.19h-5.28v-21.7h8.87a9.7,9.7,0,0,1,4.37.9,6.1,6.1,0,0,1,2.7,2.45,6.84,6.84,0,0,1,.9,3.48,6.33,6.33,0,0,1-4.82,6.27l5,8.6ZM307,116.55h3.28a3,3,0,0,0,2.18-.71,2.72,2.72,0,0,0,.72-2,2.6,2.6,0,0,0-.72-2,3,3,0,0,0-2.18-.71H307Z"/><path class="cls-3" d="M328.87,111.87a10,10,0,0,1,3.88-3.93,11.24,11.24,0,0,1,5.64-1.41,10.76,10.76,0,0,1,6.61,2,9.79,9.79,0,0,1,3.68,5.57h-5.81a4.6,4.6,0,0,0-1.84-2.07,5.45,5.45,0,0,0-6.66,1,7.6,7.6,0,0,0,0,9.09,5.06,5.06,0,0,0,4,1.7,5.18,5.18,0,0,0,2.7-.71,4.6,4.6,0,0,0,1.84-2.07h5.81a9.71,9.71,0,0,1-3.68,5.55,10.81,10.81,0,0,1-6.61,2,11.24,11.24,0,0,1-5.64-1.41,9.93,9.93,0,0,1-3.88-3.91,12.46,12.46,0,0,1,0-11.44Z"/><path class="cls-3" d="M365.43,124.64h-8.1L356,128.48h-5.53l7.84-21.7h6.12l7.85,21.7h-5.59Zm-1.36-4.08-2.69-7.94-2.65,7.94Z"/><path class="cls-3" d="M385.77,128.48l-4.52-8.19H380v8.19H374.7v-21.7h8.87a9.7,9.7,0,0,1,4.37.9,6.18,6.18,0,0,1,2.71,2.45,6.83,6.83,0,0,1,.89,3.48,6.4,6.4,0,0,1-1.22,3.86,6.49,6.49,0,0,1-3.6,2.41l5,8.6ZM380,116.55h3.27a3,3,0,0,0,2.18-.71,2.68,2.68,0,0,0,.73-2,2.57,2.57,0,0,0-.73-2,3,3,0,0,0-2.18-.71H380Z"/><path class="cls-3" d="M400.14,111v4.38h7.07v4.08h-7.07v4.76h8v4.24H394.85v-21.7h13.29V111Z"/><path class="cls-3" d="M416.85,111v4.38h7.08v4.08h-7.08v4.76h8v4.24H411.57v-21.7h13.29V111Z"/><path class="cls-3" d="M439.35,128.48l-4.51-8.19h-1.27v8.19h-5.28v-21.7h8.87a9.73,9.73,0,0,1,4.37.9,6.1,6.1,0,0,1,2.7,2.45,6.84,6.84,0,0,1,.9,3.48,6.33,6.33,0,0,1-4.82,6.27l5,8.6Zm-5.78-11.93h3.28a3,3,0,0,0,2.18-.71,2.72,2.72,0,0,0,.72-2,2.6,2.6,0,0,0-.72-2,3,3,0,0,0-2.18-.71h-3.28Z"/><path class="cls-3" d="M254.27,165.56H249l-8.84-13.38v13.38h-5.28V143.87h5.28L249,157.31V143.87h5.28Z"/><path class="cls-3" d="M262.76,164.35a10.57,10.57,0,0,1-4.05-4,11.68,11.68,0,0,1,0-11.45,10.67,10.67,0,0,1,4.05-4A11.77,11.77,0,0,1,274,145a10.45,10.45,0,0,1,4,4,11.85,11.85,0,0,1,0,11.45,10.5,10.5,0,0,1-4,4,11.68,11.68,0,0,1-11.2,0Zm9.76-5.13a7.5,7.5,0,0,0,0-9.16,6,6,0,0,0-8.34,0,7.55,7.55,0,0,0,0,9.19,5.39,5.39,0,0,0,4.19,1.72A5.3,5.3,0,0,0,272.52,159.22Z"/><path class="cls-3" d="M312.25,143.87l-5.66,21.69H300.2l-3.46-14.28-3.59,14.28h-6.4l-5.5-21.69h5.66L290,159.66l3.86-15.79h5.81l3.71,15.79,3.15-15.79Z"/><path class="cls-3" d="M316.81,165a2.65,2.65,0,0,1-.88-2,2.74,2.74,0,0,1,.88-2.07,3.48,3.48,0,0,1,4.51,0,2.74,2.74,0,0,1,.88,2.07,2.65,2.65,0,0,1-.88,2,3.51,3.51,0,0,1-4.51,0Zm5.05-21.9-.62,14.81h-4.48l-.62-14.81Z"/><rect class="cls-3" x="233.75" y="177.4" width="82.08" height="4.81"/><path class="cls-4" d="M588.3-47.67V23.15H568.61V-15.92L555.25,23.15H538.77L525.31-16.22V23.15H505.62V-47.67h23.81l17.78,46,17.38-46Z"/><path class="cls-4" d="M663.94-47.67,639,.65v22.5H619.24V.65L594.32-47.67h22.51l12.45,27.33,12.46-27.33Z"/><path class="cls-4" d="M769.71-47.67,752.33,23.15h-24.2l-9.75-43.39-9.94,43.39H684.23L667.05-47.67h21.3L696.58.75l11.15-48.42h21.6l10.85,48,8.24-48Z"/><path class="cls-4" d="M793.72,19.19a34.9,34.9,0,0,1-13.21-13,36.27,36.27,0,0,1-4.87-18.74,36.23,36.23,0,0,1,4.87-18.73,34.41,34.41,0,0,1,13.21-12.91A37.09,37.09,0,0,1,812-48.77a37,37,0,0,1,18.34,4.62,34.13,34.13,0,0,1,13.1,12.91,36.5,36.5,0,0,1,4.83,18.73,36.53,36.53,0,0,1-4.83,18.74,34.53,34.53,0,0,1-13.15,13A36.85,36.85,0,0,1,812,23.86,36.81,36.81,0,0,1,793.72,19.19ZM823.91.65q4.37-4.92,4.37-13.16,0-8.43-4.37-13.31C821-29.06,817-30.69,812-30.69s-9.07,1.63-12,4.87-4.32,7.69-4.32,13.31,1.44,10,4.32,13.21,6.86,4.87,12,4.87S821,3.93,823.91.65Z"/><path class="cls-4" d="M893,23.15,878.9-3h-2.11V23.15H857.1V-47.67h31a32,32,0,0,1,14.47,3,20.78,20.78,0,0,1,8.94,8.13,22.63,22.63,0,0,1,3,11.61,21.1,21.1,0,0,1-4,12.7A21.48,21.48,0,0,1,899-4.47l16,27.62ZM876.79-16.43h9.75q4,0,6-1.9a7.28,7.28,0,0,0,2-5.53,7,7,0,0,0-2.06-5.37,8.31,8.31,0,0,0-6-2h-9.75Z"/><path class="cls-4" d="M965.39,23.15l-22.2-31v31H923.5V-47.67h19.69v30.54l22-30.54h22.7l-26,34.36L989.2,23.15Z"/><path class="cls-4" d="M588.3,45.94v70.82H568.61V77.68l-13.36,39.08H538.77L525.31,77.38v39.38H505.62V45.94h23.81l17.78,46,17.38-46Z"/><path class="cls-4" d="M663.94,45.94,639,94.25v22.51H619.24V94.25L594.32,45.94h22.51l12.45,27.32,12.46-27.32Z"/><path class="cls-4" d="M769.71,45.94l-17.38,70.82h-24.2l-9.75-43.4-9.94,43.4H684.23L667.05,45.94h21.3l8.23,48.42,11.15-48.42h21.6l10.85,48,8.24-48Z"/><path class="cls-4" d="M793.72,112.79a34.82,34.82,0,0,1-13.21-13,36.23,36.23,0,0,1-4.87-18.73,36.27,36.27,0,0,1,4.87-18.74,34.48,34.48,0,0,1,13.21-12.91,38.59,38.59,0,0,1,36.62,0,34.2,34.2,0,0,1,13.1,12.91,36.53,36.53,0,0,1,4.83,18.74,36.5,36.5,0,0,1-4.83,18.73,34.46,34.46,0,0,1-13.15,13,38.13,38.13,0,0,1-36.57,0Zm30.19-18.54q4.37-4.92,4.37-13.15,0-8.44-4.37-13.31C821,64.54,817,62.91,812,62.91s-9.07,1.63-12,4.88-4.32,7.68-4.32,13.31,1.44,10,4.32,13.21,6.86,4.87,12,4.87S821,97.54,823.91,94.25Z"/><path class="cls-4" d="M893,116.76,878.9,90.64h-2.11v26.12H857.1V45.94h31a32.17,32.17,0,0,1,14.47,3A20.8,20.8,0,0,1,911.55,57a22.62,22.62,0,0,1,3,11.6,21.13,21.13,0,0,1-4,12.71A21.47,21.47,0,0,1,899,89.13l16,27.63ZM876.79,77.18h9.75q4,0,6-1.91a7.25,7.25,0,0,0,2-5.52,7.05,7.05,0,0,0-2.06-5.38,8.31,8.31,0,0,0-6-2h-9.75Z"/><path class="cls-4" d="M965.39,116.76l-22.2-31v31H923.5V45.94h19.69V76.48l22-30.54h22.7l-26,34.35,27.32,36.47Z"/><path class="cls-4" d="M588.3,136.47v70.82H568.61V168.21l-13.36,39.08H538.77l-13.46-39.38v39.38H505.62V136.47h23.81l17.78,46,17.38-46Z"/><path class="cls-4" d="M663.94,136.47,639,184.79v22.5H619.24v-22.5l-24.92-48.32h22.51l12.45,27.32,12.46-27.32Z"/><path class="cls-4" d="M769.71,136.47l-17.38,70.82h-24.2l-9.75-43.39-9.94,43.39H684.23l-17.18-70.82h21.3l8.23,48.42,11.15-48.42h21.6l10.85,48,8.24-48Z"/><path class="cls-4" d="M793.72,203.32a34.75,34.75,0,0,1-13.21-13,38.45,38.45,0,0,1,0-37.46A34.41,34.41,0,0,1,793.72,140a38.59,38.59,0,0,1,36.62,0,34.13,34.13,0,0,1,13.1,12.91,38.73,38.73,0,0,1,0,37.46,34.39,34.39,0,0,1-13.15,13,38.13,38.13,0,0,1-36.57,0Zm30.19-18.53q4.37-4.92,4.37-13.16,0-8.44-4.37-13.31c-2.92-3.25-6.88-4.87-11.91-4.87s-9.07,1.62-12,4.87-4.32,7.68-4.32,13.31,1.44,10,4.32,13.21,6.86,4.87,12,4.87S821,188.07,823.91,184.79Z"/><path class="cls-4" d="M893,207.29,878.9,181.17h-2.11v26.12H857.1V136.47h31a32,32,0,0,1,14.47,3,20.71,20.71,0,0,1,8.94,8.13,22.62,22.62,0,0,1,3,11.6,21.1,21.1,0,0,1-4,12.71A21.48,21.48,0,0,1,899,179.67l16,27.62Zm-16.18-39.58h9.75c2.67,0,4.68-.63,6-1.91a7.25,7.25,0,0,0,2-5.52,7,7,0,0,0-2.06-5.37,8.31,8.31,0,0,0-6-2h-9.75Z"/><path class="cls-4" d="M965.39,207.29l-22.2-31v31H923.5V136.47h19.69V167l22-30.54h22.7l-26,34.36,27.32,36.46Z"/><path class="cls-4" d="M588.3,230.08v70.81H568.61V261.82l-13.36,39.07H538.77l-13.46-39.37v39.37H505.62V230.08h23.81l17.78,46,17.38-46Z"/><path class="cls-4" d="M663.94,230.08,639,278.39v22.5H619.24v-22.5l-24.92-48.31h22.51l12.45,27.32,12.46-27.32Z"/><path class="cls-4" d="M769.71,230.08l-17.38,70.81h-24.2l-9.75-43.39-9.94,43.39H684.23l-17.18-70.81h21.3l8.23,48.41,11.15-48.41h21.6l10.85,48,8.24-48Z"/><path class="cls-4" d="M793.72,296.93a34.9,34.9,0,0,1-13.21-13,38.47,38.47,0,0,1,0-37.47,34.41,34.41,0,0,1,13.21-12.91,38.59,38.59,0,0,1,36.62,0,34.13,34.13,0,0,1,13.1,12.91,38.75,38.75,0,0,1,0,37.47,34.53,34.53,0,0,1-13.15,13,38.13,38.13,0,0,1-36.57,0Zm30.19-18.54q4.37-4.92,4.37-13.16,0-8.43-4.37-13.31c-2.92-3.24-6.88-4.87-11.91-4.87s-9.07,1.63-12,4.87-4.32,7.69-4.32,13.31,1.44,10,4.32,13.21,6.86,4.88,12,4.88S821,281.68,823.91,278.39Z"/><path class="cls-4" d="M893,300.89,878.9,274.78h-2.11v26.11H857.1V230.08h31a32,32,0,0,1,14.47,3,20.8,20.8,0,0,1,8.94,8.14,22.57,22.57,0,0,1,3,11.6,21.07,21.07,0,0,1-4,12.7A21.43,21.43,0,0,1,899,273.27l16,27.62Zm-16.18-39.57h9.75q4,0,6-1.91a7.27,7.27,0,0,0,2-5.53,7,7,0,0,0-2.06-5.37,8.31,8.31,0,0,0-6-2h-9.75Z"/><path class="cls-4" d="M965.39,300.89l-22.2-31v31H923.5V230.08h19.69v30.53l22-30.53h22.7l-26,34.35,27.32,36.46Z"/><path class="cls-4" d="M588.3,321.8v70.82H568.61V353.54l-13.36,39.08H538.77l-13.46-39.38v39.38H505.62V321.8h23.81l17.78,46,17.38-46Z"/><path class="cls-4" d="M663.94,321.8,639,370.12v22.5H619.24v-22.5L594.32,321.8h22.51l12.45,27.32,12.46-27.32Z"/><path class="cls-4" d="M769.71,321.8l-17.38,70.82h-24.2l-9.75-43.4-9.94,43.4H684.23L667.05,321.8h21.3l8.23,48.42,11.15-48.42h21.6l10.85,48,8.24-48Z"/><path class="cls-4" d="M793.72,388.65a34.75,34.75,0,0,1-13.21-13,38.47,38.47,0,0,1,0-37.47,34.48,34.48,0,0,1,13.21-12.91,38.59,38.59,0,0,1,36.62,0,34.2,34.2,0,0,1,13.1,12.91,38.75,38.75,0,0,1,0,37.47,34.39,34.39,0,0,1-13.15,13,38.13,38.13,0,0,1-36.57,0Zm30.19-18.53q4.37-4.94,4.37-13.16,0-8.44-4.37-13.31C821,340.4,817,338.77,812,338.77s-9.07,1.63-12,4.88-4.32,7.68-4.32,13.31,1.44,10,4.32,13.21,6.86,4.87,12,4.87S821,373.4,823.91,370.12Z"/><path class="cls-4" d="M893,392.62,878.9,366.5h-2.11v26.12H857.1V321.8h31a32.17,32.17,0,0,1,14.47,3,20.8,20.8,0,0,1,8.94,8.14,22.62,22.62,0,0,1,3,11.6,21.13,21.13,0,0,1-4,12.71A21.47,21.47,0,0,1,899,365l16,27.63ZM876.79,353h9.75q4,0,6-1.91a7.25,7.25,0,0,0,2-5.52,7.05,7.05,0,0,0-2.06-5.38,8.31,8.31,0,0,0-6-2h-9.75Z"/><path class="cls-4" d="M965.39,392.62l-22.2-31v31H923.5V321.8h19.69v30.54l22-30.54h22.7l-26,34.35,27.32,36.47Z"/><circle class="cls-5" cy="-14.09" r="226.8"/><rect class="cls-2" x="175.6" y="123.19" width="2.98" height="12.17"/><rect class="cls-2" x="210.03" y="57.83" width="2.98" height="20.17"/><circle class="cls-5" cy="-14.09" r="218.48"/><rect class="cls-2" x="158.88" y="129.28" width="2.98" height="11.19"/><rect class="cls-2" x="193.32" y="78.74" width="2.98" height="11.19"/></svg>