<svg id="Layer_1" data-name="Layer 1" xmlns="http://www.w3.org/2000/svg" xmlns:xlink="http://www.w3.org/1999/xlink" viewBox="0 0 1000 330"><defs><style>.cls-1,.cls-10,.cls-11,.cls-6,.cls-8,.cls-9{fill:none;}.cls-2{fill:#f5eeda;}.cls-3{clip-path:url(#clip-path);}.cls-4{fill:#fff;}.cls-11,.cls-4,.cls-6{stroke:#000;}.cls-10,.cls-11,.cls-4,.cls-6,.cls-8,.cls-9{stroke-miterlimit:10;}.cls-4,.cls-6,.cls-8,.cls-9{stroke-width:0.5px;}.cls-5{fill:#ee7273;}.cls-7{fill:#3364ab;}.cls-8{stroke:#1c1c1b;}.cls-9{stroke:#fff;}.cls-10{stroke:#ee7273;}.cls-11{stroke-width:0.47px;}.cls-12{fill:#d9ba55;}.cls-13{fill:#eed583;}</style><clipPath id="clip-path"><rect class="cls-1" x="126.18" y="-35.83" width="804.26" height="330.15"/></clipPath></defs><rect class="cls-2" x="367.26" y="232.9" width="243.26" height="100.35" rx="50.18"/><rect class="cls-2" y="-0.07" width="494.72" height="330.15"/><g class="cls-3"><path class="cls-2" d="M213.93,358c36.23,0,70-.06,105.21-10.45,18.94-5.58,52.39-14.74,72-10.24,19.26,4.43,29.18,13,51.48,10.24l81.45-10.21c31.36-3.93,67.34-10.84,82.6-38.53,12.71-23,5.55-52.11-6.68-75.42S570.71,179.06,562.75,154c-7.63-24-6.61-50.93-19-72.86-10.88-19.19-30.72-32-42-50.93C487.29,6,488.92-24.2,481.32-51.31c-26.53-94.61-133.3-96.84-212.71-82.88-49.89,8.77-100.43,26.45-135.38,63.12-40,42-53.86,103.06-54,161.1-.12,38.27,5,76.25,9.33,114.21,3.74,32.65,1.76,68.35,18.06,97.89,7.31,13.26,16.5,20,28.67,28.47C157.64,346.14,186.3,358,213.93,358Z"/><path class="cls-4" d="M312.92,98.16c2.69,1.79,13.5,12.13,16.76,12.4,4.49.36,7.09-8.55,9.91-11,2.12-1.84-.88-4.3.93-6.44a4.84,4.84,0,0,1-.81-.88,9.76,9.76,0,0,1-1.37-4.31c-.32-2.15-.65-4.3-1-6.45.18,1.18,7.05-.36,7.83-.68C352.1,78,355,69.41,356,62.69c1.55-10.29,1.23-23.14-7.84-30a22,22,0,0,0-20.66-2.88,23.52,23.52,0,0,0-14,15.6c-1.42,5.18.26,7.07.57,12.41.35,6.05,0,31.37-2.18,34.93a11.76,11.76,0,0,1-2.37,2.78A34,34,0,0,0,312.92,98.16Z"/><path class="cls-5" d="M359.42,94.12c-3-.87-6.06-.32-9-1.29-1.82-.6-3.52,7.61-4.93,6.3-1.2,1-1.27-6.17-2.64-5.33-3.71,2.3-13.33,10.81-13.33,10.81s-16.73-6.85-23-11.8a9.81,9.81,0,0,1-2.54,1.4c-1.74.54-4.87-.42-6.22,1.07-5.31,5.83-10.27,12-16,17.37,13.6,5.7,35.66,43.95,50.2,46.44,10.2,1.75,23-26.37,30-37.22a21.32,21.32,0,0,0,2.81-7.83c.13-.7.24-1.39.34-2.09C366,105,367,96.31,359.42,94.12Z"/><path d="M323.92,102.29c0,.9,3.42,7.93,3.42,7.93l1.08,56.92L345,167,332.57,110l1.46-9.19Z"/><polyline class="cls-6" points="332 108.96 336.94 114.77 343.69 97.94"/><path class="cls-6" d="M327.88,109.83c-.2.21-4.32,5.34-4.32,5.34L312.34,98.76"/><path class="cls-7" d="M401.35,147.64c-2.05-13.32-5-27-12.86-37.94-7-9.8-16.78-14.54-27.76-16.75-7.65-1.61-17.16-3.82-22-5.39-.43,10.27-3.74,66-3.74,66-.4-2-16.5-61-22.8-67.27-3.05,3.5-10.29,6.5-14.69,8-2.74.6-5.48,1.19-8.21,1.84-6.66,1.59-13.27,3.56-19.3,6.87-16.37,9-24.41,27.38-25.87,45.36-1.14,14.08,1.72,27,3.66,40.76,2.51,17.83,3.26,48.44,20.82,58.81,6.25,3.68,13.74,4.41,21,5.07,20.4,1.84,41.25,3.52,61.56-.09A79.58,79.58,0,0,0,365.35,249,77.49,77.49,0,0,0,397,226.91C415.65,205.09,405.25,173.09,401.35,147.64Z"/><line class="cls-8" x1="204.87" y1="300.88" x2="477.76" y2="300.88"/><path class="cls-8" d="M187.86,294.71c102,.08,204.54.08,306.42,0"/><path d="M412.83,323.25c-.26-.38-.53-.76-.82-1.12-5.2-6.68-14.19-11-21.53-14.95-8.1-4.32-17.18-7.88-26.53-7.34-8.42.49-20.13,6.2-21.87,15.12a5.2,5.2,0,0,0,.12,3c1,2.34,4.17,2.55,6.72,2.58,10.88.09,21.35,3.44,31.49,7.05,5.23,1.86,10.43,3.82,15.72,5.52,4.72,1.51,16.21,8.16,19.52,1.26C417.45,330.63,414.93,326.33,412.83,323.25Z"/><path class="cls-7" d="M480.72,222a36.09,36.09,0,0,0-20.07-10.84c-10.59-2-21.53-.06-31.92,2.8-22,6.06-42.65,16.27-64.77,22-9.81,2.52-16.21,1.58-25.8.81-12.15-1-24.63.22-36.87-.51-11.43-.67-23.8-1.56-34.49,1.59l-4.22-2.77c-11.95-7.85-23.86-15.66-38.85-12.8-11.79,2.24-23.15,8.22-30.46,17.92-7.75,10.31-5.42,23.77,1.53,34.05,5.75,8.5,14.25,14.77,23.06,20,30.38,18.23,63.57,29.4,99.43,26.91,4.79-.34,10.45-.39,13.91,3.46,1.3,1.45,2.05,9.39,4.94,9.05,3.55-.42,10.39-1.41,13.74-2.62l54.35-19.64c15.92-5.75,31.95-11.55,46.46-20.28,12.54-7.54,23.9-17.75,30.56-31,4.8-9.54,8.74-22.1,3.73-32A28.48,28.48,0,0,0,480.72,222Z"/><path class="cls-6" d="M255.85,249.42c10.19,5.09,20.85,8.34,30.61,14.37s19,13,29.57,17.61c6.87,3,16.84,4.11,23.43,7.38"/><path d="M331.33,319.26q-1.15-2.64-2.29-5.28-2.27-5.25-4.54-10.49c-3.4,1.7-6.68,3.07-10.63,2.75-2.1-.17-4.16-.77-6.26-.74-4.19.07-6,3.33-7.73,6.63-3.08,5.83-8.62,10.08-13.11,14.76-5.63,5.87-8.89,11.39-8,19.78.32,3,1.52,6.35,4.38,7.16,2.64.74,5.25-1.11,7.37-2.85l17.27-14.13c2.63-2.15,5.3-5,8.29-6.63,2.45-1.32,5.37-2.15,7.7-3.7a42.43,42.43,0,0,1,4.55-1.63c1-.29,3.59-.39,4.31-1.09.89-.87-.89-3.54-1.29-4.47Z"/><path class="cls-7" d="M349.59,254.2c1.31-.66,2.31-1.84,3.09-4.07a13.63,13.63,0,0,0-1.56-11.47,20.65,20.65,0,0,0-12.64-8.58c-5.08-1.06-10-2.88-15.18-3.93-3.73-.75-7.39-1.77-11.05-2.8l-23.19-6.5c-1.88-.52-3.86-.93-5.69-1.59s-1.66-.46-1.81-2.15c-.17-1.88.48-3.92.61-5.8q.29-4.12.55-8.25.51-8,.95-16c.8-14.52-3.41-28.94.67-43.06,1.65-5.71,3.64-11.42,3.78-17.35s-2-12.31-6.88-15.63c-4.28-2.88-10-2.94-14.85-1.07s-8.78,5.43-12.1,9.37c-6.26,7.45-9.17,17.73-11.51,27.05a157.4,157.4,0,0,0-4.35,30.47c-.82,16.32.41,32.66,2,48.9.89,9,8.59,17.57,15.79,22.57,16,11.07,37.23,12.76,56.07,12.74,10.52,0,21-.76,31.49-1.73C346.22,255.05,348.11,255,349.59,254.2Z"/><path d="M321.1,69c-2.18,2.16-7.35,4.79-9.45,1.11a10.92,10.92,0,0,1-1-3.3c-.8-4-2.56-7.65-3.5-11.57-3.67-15.33,10.52-30.06,25.5-30.3,5.43-.08,10.76,1.49,16.19,1.61a33.87,33.87,0,0,1,6.91.36c5.2,1.21,8.41,8.31,4.85,12.64-2.88,3.5-8.42,5.16-12.76,5.69-3,.35-6.17.83-8.76,2.41-1.57,1-4.85,3.31-5.73,4.91-.54,1-.6,2.21-1.18,3.18-1.33,2.19-3,.63-4.66,1.34-1.82.79-1.53,2.22-1.89,4A17.33,17.33,0,0,1,321.1,69Z"/><path class="cls-6" d="M431.37,231.77C411,241,394.56,257,376,269.51c-17.35,11.67-36.55,20.25-55.64,28.77,1,2.18,1.4,4.34,2.4,6.53"/><path class="cls-4" d="M341.68,67.34c.41,5.78,7.42,6.21,9.39,2.58"/><path class="cls-4" d="M324.15,65.52c-6.24,1.56-10.13-5-8.23-9.31a6.62,6.62,0,0,1,12.55,1.3"/><path class="cls-8" d="M321,55.7a4.47,4.47,0,0,1,3.51.51A3.12,3.12,0,0,1,326,58.94"/><path d="M285.73,265.41H401.36a3.06,3.06,0,0,0,3.07-3.06h0a3.06,3.06,0,0,0-3.07-3.07H285.73a3.07,3.07,0,0,0-3.07,3.07h0A3.07,3.07,0,0,0,285.73,265.41Z"/><path d="M302.88,261.25h101.2l21-51.91a2.56,2.56,0,0,0-2.38-3.53H327.07a2.58,2.58,0,0,0-2.39,1.6Z"/><path class="cls-9" d="M374.65,233.56c-1.08,2.82-4.71,5.1-8.11,5.1s-5.29-2.28-4.21-5.1,4.71-5.09,8.11-5.09S375.72,230.75,374.65,233.56Z"/><path d="M338,81.27a26,26,0,0,0,.13,4.83l-.31-.08a12.44,12.44,0,0,1-7.43-6.89A17.81,17.81,0,0,0,338,81.27Z"/><path class="cls-10" d="M318.44,333.24a9,9,0,0,0-5.19-5,1.7,1.7,0,0,0-1.79.13c-.62.66,0,1.7.52,2.43a12.82,12.82,0,0,1,2.08,4.44,2,2,0,0,1-.18,1.81,1.5,1.5,0,0,1-1.82.16,6,6,0,0,1-1.44-1.35,11.86,11.86,0,0,0-3.89-2.87,1.15,1.15,0,0,0-.84-.14c-.81.27-.3,1.47.21,2.15a7.13,7.13,0,0,1,1.41,4.88"/><path class="cls-10" d="M371,326.57c.27-1.57.63-3.28,1.87-4.27s3.61-.51,3.72,1.07a7,7,0,0,1-.4,1.88,2.54,2.54,0,0,0,.81,2.49,1.87,1.87,0,0,0,2.5-.17c.8-1,.25-2.62,1.07-3.58s2.87-.33,3.45,1,.29,2.8.13,4.21-.08,3,1,4"/><path class="cls-6" d="M316.45,77.3a81.18,81.18,0,0,1-.51,8.68"/><path class="cls-6" d="M369.36,221.06c5.93-10.66-.83-75-1.18-80.52"/><path class="cls-6" d="M282.81,136.6q-.87,15.66-1.73,31.33c-.28,4.95-.91,10-.69,15,.21,4.71-.83,9.45-.35,14.22.46,4.58,2.09,9.2,5.38,12.41,2.4,2.35,5.51,3.8,8.5,5.33a137.39,137.39,0,0,1,26.8,17.94"/><path class="cls-6" d="M241.24,223.33c11.41,14.28,30.32,19.74,48,24.42l21.47,5.68"/><path class="cls-6" d="M352.76,91.55c-.83,8.87-1.61,16.72-2.45,25.6l-10.53-.1c2.79,2.89,5.75,6.18,5.87,10.2a16.06,16.06,0,0,1-.77,4.65c-2.72,10.2-6.17,19-8.89,29.17a255.79,255.79,0,0,1-18.46-33.77l5.4-8.27c-3.15-1.24-7.23.76-9.89-1.34a7.75,7.75,0,0,1-2.09-3.33l-8.84-21.45"/><path class="cls-6" d="M336,161.07c2.49,22.29,4.22,26.89,7.33,48.54"/></g><circle class="cls-11" cx="445.58" cy="40.51" r="19.19"/><path d="M444.46,51.09l-.24,0H444c-.61,0-1.17,0-1.67-.06a13.61,13.61,0,0,1-1.38-.18c-.43-.08-.84-.18-1.24-.29l-1.22-.39a7.1,7.1,0,0,1,.26-1.33c.13-.44.27-.87.43-1.29.67.22,1.37.41,2.08.58a11.42,11.42,0,0,0,2.59.25,5.82,5.82,0,0,0,3.64-.95,3.19,3.19,0,0,0,1.19-2.62,3.4,3.4,0,0,0-.26-1.4,2.66,2.66,0,0,0-.76-1,5.28,5.28,0,0,0-1.28-.76l-1.81-.79-1.43-.6a10.41,10.41,0,0,1-1.64-.8,5.38,5.38,0,0,1-1.29-1.06A4.13,4.13,0,0,1,439.4,37a5.93,5.93,0,0,1-.3-2,5.26,5.26,0,0,1,1.38-3.75,6.55,6.55,0,0,1,4-1.81V26.56a3.89,3.89,0,0,1,1-.12,4.38,4.38,0,0,1,1.07.12v2.77a19.9,19.9,0,0,1,2.46.27,11.5,11.5,0,0,1,2.07.53,9.14,9.14,0,0,1-.66,2.47,13.28,13.28,0,0,0-1.84-.52,11.58,11.58,0,0,0-2.41-.22,5,5,0,0,0-2.89.71,2.51,2.51,0,0,0-1,2.21,2.49,2.49,0,0,0,1.05,2.15,6,6,0,0,0,1.25.73l1.65.72,1.14.48a17.44,17.44,0,0,1,1.93.92,5.63,5.63,0,0,1,1.47,1.13,4.71,4.71,0,0,1,1,1.55,6,6,0,0,1,.34,2.17,5.9,5.9,0,0,1-1.44,4.12,7.05,7.05,0,0,1-4.07,2.1v3.43a4,4,0,0,1-.5.09l-.51,0a4.89,4.89,0,0,1-.54,0l-.53-.09Z"/><circle class="cls-11" cx="194.61" cy="110.16" r="19.19"/><path d="M193.49,120.74l-.24,0h-.18c-.61,0-1.17,0-1.66-.06a13.45,13.45,0,0,1-1.39-.18c-.43-.08-.84-.18-1.23-.29l-1.22-.39a6.35,6.35,0,0,1,.25-1.33c.13-.44.27-.87.43-1.29.67.22,1.37.41,2.08.58a11.42,11.42,0,0,0,2.59.25,5.76,5.76,0,0,0,3.64-1,3.19,3.19,0,0,0,1.19-2.62,3.4,3.4,0,0,0-.26-1.4,2.63,2.63,0,0,0-.75-1,5.56,5.56,0,0,0-1.29-.76l-1.81-.79-1.43-.6a10.41,10.41,0,0,1-1.64-.8,5.58,5.58,0,0,1-1.29-1.06,4.13,4.13,0,0,1-.85-1.44,5.93,5.93,0,0,1-.3-2,5.22,5.22,0,0,1,1.39-3.75,6.5,6.5,0,0,1,4-1.81V96.21a3.89,3.89,0,0,1,1-.12,4.32,4.32,0,0,1,1.07.12V99a19.69,19.69,0,0,1,2.46.27,11.5,11.5,0,0,1,2.07.53,9.14,9.14,0,0,1-.66,2.47,14.83,14.83,0,0,0-1.84-.52,11.58,11.58,0,0,0-2.41-.22,5,5,0,0,0-2.89.71,2.51,2.51,0,0,0-1,2.21,2.63,2.63,0,0,0,.27,1.23,2.74,2.74,0,0,0,.78.93,6.42,6.42,0,0,0,1.25.72l1.66.72,1.13.48a17.44,17.44,0,0,1,1.93.92,5.85,5.85,0,0,1,1.48,1.13,4.86,4.86,0,0,1,1,1.55,6,6,0,0,1,.34,2.17,5.9,5.9,0,0,1-1.44,4.12,7,7,0,0,1-4.07,2.1v3.43a3.44,3.44,0,0,1-.5.09l-.51,0a4.58,4.58,0,0,1-.53,0,5.07,5.07,0,0,1-.54-.09Z"/><circle class="cls-11" cx="398.33" cy="-1.85" r="19.19"/><path d="M397.21,8.73l-.24,0h-.18c-.61,0-1.17,0-1.67-.06a13.61,13.61,0,0,1-1.38-.18c-.43-.08-.84-.18-1.24-.29l-1.22-.39a7.1,7.1,0,0,1,.26-1.33c.13-.44.27-.87.43-1.29.67.22,1.37.41,2.08.58a11.42,11.42,0,0,0,2.59.25,5.76,5.76,0,0,0,3.64-1,3.19,3.19,0,0,0,1.19-2.62,3.4,3.4,0,0,0-.26-1.4,2.66,2.66,0,0,0-.76-1,5.28,5.28,0,0,0-1.28-.76l-1.81-.79L395.93-2a10.41,10.41,0,0,1-1.64-.8A5.38,5.38,0,0,1,393-3.91a4.13,4.13,0,0,1-.85-1.44,5.93,5.93,0,0,1-.3-2,5.26,5.26,0,0,1,1.38-3.75,6.55,6.55,0,0,1,4-1.81V-15.8a3.89,3.89,0,0,1,1-.12,4.38,4.38,0,0,1,1.07.12V-13a19.9,19.9,0,0,1,2.46.27,11.5,11.5,0,0,1,2.07.53,9.14,9.14,0,0,1-.66,2.47,14.83,14.83,0,0,0-1.84-.52,11.58,11.58,0,0,0-2.41-.22,5,5,0,0,0-2.89.71,2.51,2.51,0,0,0-1,2.21,2.63,2.63,0,0,0,.26,1.23,2.77,2.77,0,0,0,.79.93,6.42,6.42,0,0,0,1.25.72L399-4l1.14.48a17.44,17.44,0,0,1,1.93.92,5.85,5.85,0,0,1,1.48,1.13A4.86,4.86,0,0,1,404.46.1a6,6,0,0,1,.34,2.17,5.9,5.9,0,0,1-1.44,4.12,7.05,7.05,0,0,1-4.07,2.1v3.43a4,4,0,0,1-.5.09l-.51,0-.54,0-.53-.09Z"/><path class="cls-5" d="M443.8,132.72a19.31,19.31,0,0,0,3.73-.78c-.06-.09-.13-.18-.19-.28a3.26,3.26,0,0,1,5.8-3c.06.12.09.23.14.35a20.29,20.29,0,0,0,2.85-2.55,2.59,2.59,0,0,1-.33-.17,3.26,3.26,0,1,1,3.54-5.47l.32.26a19.63,19.63,0,0,0,1.21-3.66,2.82,2.82,0,0,1-.41,0,3.26,3.26,0,0,1,.32-6.51,3.4,3.4,0,0,1,.46.07,19.38,19.38,0,0,0-.79-3.81,2.59,2.59,0,0,1-.39.25,3.25,3.25,0,0,1-3-5.79,2.72,2.72,0,0,1,.47-.19A19.59,19.59,0,0,0,455,98.56a3.68,3.68,0,0,1-.23.44,3.26,3.26,0,0,1-5.47-3.53,3.39,3.39,0,0,1,.33-.42,19.72,19.72,0,0,0-3.74-1.22,3,3,0,0,1,0,.52,3.26,3.26,0,1,1-6.51-.33,3.08,3.08,0,0,1,.08-.53,19.82,19.82,0,0,0-3.85.82,4,4,0,0,1,.28.43,3.26,3.26,0,1,1-5.8,3,4,4,0,0,1-.19-.48,20.09,20.09,0,0,0-2.9,2.63,3.48,3.48,0,0,1,.43.22,3.26,3.26,0,0,1-3.53,5.48,2.85,2.85,0,0,1-.38-.31,20.08,20.08,0,0,0-1.19,3.71,3.25,3.25,0,1,1,.12,6.48,1.93,1.93,0,0,1-.42-.06,18.87,18.87,0,0,0,.81,3.77,3.7,3.7,0,0,1,.33-.21,3.25,3.25,0,1,1,3,5.79,2.24,2.24,0,0,1-.36.14,19.23,19.23,0,0,0,2.57,2.84c.05-.1.1-.21.16-.31a3.26,3.26,0,0,1,5.47,3.53,3,3,0,0,1-.22.28,19.14,19.14,0,0,0,3.62,1.17c0-.11,0-.22,0-.33a3.25,3.25,0,0,1,6.5.32A1.84,1.84,0,0,1,443.8,132.72ZM441,126.36a13.27,13.27,0,1,1,13.92-12.59A13.26,13.26,0,0,1,441,126.36Z"/><path class="cls-5" d="M445.84,98.63a15.09,15.09,0,1,0,10.25,18.71A15.11,15.11,0,0,0,445.84,98.63Zm5.5,17.32a10.14,10.14,0,1,1-6.89-12.57A10.15,10.15,0,0,1,451.34,116Z"/><path class="cls-5" d="M494.26,138a27.21,27.21,0,0,0,5.28-1.11,3.42,3.42,0,0,1-.26-.4,4.61,4.61,0,1,1,8.21-4.21,4.14,4.14,0,0,1,.19.49,28.25,28.25,0,0,0,4-3.61,4,4,0,0,1-.46-.24,4.61,4.61,0,0,1,5-7.75,4.14,4.14,0,0,1,.46.37,27.45,27.45,0,0,0,1.71-5.19,3.69,3.69,0,0,1-.58,0,4.61,4.61,0,1,1,1.11-9.11,27.53,27.53,0,0,0-1.12-5.4,5.14,5.14,0,0,1-.55.35,4.61,4.61,0,1,1-4.21-8.2,4.51,4.51,0,0,1,.66-.26,27.93,27.93,0,0,0-3.69-4.14,5.2,5.2,0,0,1-.32.62,4.61,4.61,0,1,1-7.75-5,4.51,4.51,0,0,1,.47-.59,27.86,27.86,0,0,0-5.3-1.73,4.41,4.41,0,0,1,0,.73,4.62,4.62,0,1,1-9.22-.46,4.52,4.52,0,0,1,.12-.75,27.61,27.61,0,0,0-5.46,1.16,3.56,3.56,0,0,1,.4.61,4.61,4.61,0,0,1-8.21,4.21,5.66,5.66,0,0,1-.27-.68,27.91,27.91,0,0,0-4.11,3.72,5.07,5.07,0,0,1,.61.32,4.61,4.61,0,1,1-5.54,7.32,28,28,0,0,0-1.68,5.25,4.36,4.36,0,0,1,.63,0,4.61,4.61,0,0,1-.46,9.21,3.76,3.76,0,0,1-.6-.09,27.14,27.14,0,0,0,1.15,5.34,3.82,3.82,0,0,1,.47-.31,4.61,4.61,0,0,1,4.21,8.21,3.28,3.28,0,0,1-.52.2,27.77,27.77,0,0,0,3.64,4c.08-.15.14-.3.23-.45a4.61,4.61,0,0,1,7.75,5,4,4,0,0,1-.32.4,27.7,27.7,0,0,0,5.13,1.66c0-.16,0-.31,0-.47a4.61,4.61,0,1,1,9.21.46A2.63,2.63,0,0,1,494.26,138Zm-4-9A18.79,18.79,0,1,1,510,111.1,18.8,18.8,0,0,1,490.24,128.94Z"/><path class="cls-5" d="M497.15,89.67a21.36,21.36,0,1,0,14.51,26.49A21.39,21.39,0,0,0,497.15,89.67Zm7.78,24.53a14.35,14.35,0,1,1-9.75-17.8A14.37,14.37,0,0,1,504.93,114.2Z"/><line class="cls-6" x1="500.69" y1="165.41" x2="477.09" y2="189.01"/><path class="cls-6" d="M478.12,167.54c-1.95,2.61-2,6.17-.21,7.94s4.9,1.1,6.85-1.52,2-6.17.21-7.94S480.07,164.93,478.12,167.54Z"/><path class="cls-6" d="M491.4,180.82c-1.95,2.61-2,6.17-.21,7.94s4.9,1.09,6.85-1.52,2-6.17.21-7.94S493.35,178.21,491.4,180.82Z"/><line class="cls-6" x1="181.79" y1="1.04" x2="158.18" y2="24.65"/><path class="cls-6" d="M159.22,3.18c-1.95,2.61-2,6.16-.21,7.94s4.9,1.09,6.85-1.52,2-6.17.2-7.94S161.16.56,159.22,3.18Z"/><path class="cls-6" d="M172.49,16.45c-1.94,2.62-2,6.17-.2,8s4.9,1.09,6.84-1.52,2-6.17.21-7.94S174.44,13.84,172.49,16.45Z"/><line class="cls-6" x1="531.75" y1="165.41" x2="508.14" y2="189.01"/><path class="cls-6" d="M509.18,167.54c-1.95,2.61-2,6.17-.21,7.94s4.9,1.1,6.84-1.52,2.05-6.17.21-7.94S511.12,164.93,509.18,167.54Z"/><path class="cls-6" d="M522.45,180.82c-1.94,2.61-2,6.17-.2,7.94s4.9,1.09,6.84-1.52,2-6.17.21-7.94S524.4,178.21,522.45,180.82Z"/><rect class="cls-4" x="198.2" y="34.52" width="12.34" height="32.25"/><rect class="cls-5" x="216.72" y="20.47" width="12.34" height="46.31"/><rect class="cls-7" x="235.24" y="12.79" width="12.34" height="53.98"/><rect class="cls-12" x="253.77" y="1.43" width="12.34" height="65.35"/><line class="cls-11" x1="187.9" y1="66.77" x2="275.06" y2="66.77"/><circle class="cls-4" cx="171.79" cy="186.55" r="21.57" transform="translate(-30.97 34.23) rotate(-10.44)"/><path class="cls-13" d="M171.79,186.55l-4.92,21a21.57,21.57,0,1,1,22.69-8.77Z"/><path class="cls-5" d="M171.79,186.55l6.85-20.46a21.57,21.57,0,0,1,10.92,32.69Z"/><line class="cls-11" x1="189.56" y1="198.78" x2="171.79" y2="186.55"/><path class="cls-11" d="M167.24,165.68l4.55,20.87s18.41-9.54,19-9.83"/><line class="cls-11" x1="175.51" y1="184.58" x2="175.37" y2="189.21"/><line class="cls-11" x1="177.38" y1="183.43" x2="177.38" y2="190.44"/><line class="cls-11" x1="179.35" y1="182.68" x2="179.39" y2="191.56"/><line class="cls-11" x1="181.41" y1="181.84" x2="181.41" y2="193.05"/><line class="cls-11" x1="183.46" y1="180.67" x2="183.38" y2="194.58"/><line class="cls-11" x1="185.36" y1="179.59" x2="185.51" y2="195.81"/><line class="cls-11" x1="187.41" y1="178.58" x2="187.41" y2="197.3"/><line class="cls-11" x1="189.38" y1="177.5" x2="189.42" y2="198.42"/><path class="cls-11" d="M157.53,207.25a25.13,25.13,0,0,1-6.44-35"/><path class="cls-11" d="M183.83,208.63a25.25,25.25,0,0,1-15.32,2.85"/><path class="cls-11" d="M196.28,192.27a25.29,25.29,0,0,1-3.78,8.54"/><path class="cls-11" d="M186.82,166.55a25.32,25.32,0,0,1,10.08,18.63"/><path class="cls-11" d="M166.74,161.92a24.69,24.69,0,0,1,11.34.35"/><polyline class="cls-6" points="501.19 251.38 515.96 272.99 535.74 245.45 551.85 269.45 570.84 220.38 590.18 271.24"/><path class="cls-12" d="M582,271.45a8.55,8.55,0,1,0,8.55-8.55A8.55,8.55,0,0,0,582,271.45Z"/><path class="cls-5" d="M542.54,245.45a6.81,6.81,0,1,1-6.81-6.8A6.81,6.81,0,0,1,542.54,245.45Z"/><circle class="cls-5" cx="501.19" cy="251.37" r="5.56"/><path class="cls-5" d="M565.31,219.91a6.66,6.66,0,1,0,6.66-6.66A6.66,6.66,0,0,0,565.31,219.91Z"/><path class="cls-12" d="M545.58,271.45a5.92,5.92,0,1,1,5.92,5.92A5.92,5.92,0,0,1,545.58,271.45Z"/><circle class="cls-12" cx="517.38" cy="271.45" r="6.86"/><path d="M679.88,104.18v41.64H669.73V128.68H654v17.14H643.81V104.18H654v16.31h15.78V104.18Z"/><path d="M697.32,112.31v8.42H710.9v7.83H697.32v9.14h15.36v8.12H687.17V104.18h25.51v8.13Z"/><path d="M729.41,138H742.7v7.83H719.27V104.18h10.14Z"/><path d="M777.64,124.2a12.26,12.26,0,0,1-5.1,4.84,18,18,0,0,1-8.54,1.83h-6.29v14.95H747.56V104.18H764a18.67,18.67,0,0,1,8.42,1.72,11.87,11.87,0,0,1,5.16,4.75,13.74,13.74,0,0,1,1.72,6.94A13.38,13.38,0,0,1,777.64,124.2Zm-10.09-2.76a5.91,5.91,0,0,0,0-7.71,6,6,0,0,0-4.33-1.36h-5.51v10.44h5.51A6,6,0,0,0,767.55,121.44Z"/><path d="M807.12,104.18v24.91a8.28,8.28,0,0,0,1.84,5.76,7,7,0,0,0,5.4,2,7.17,7.17,0,0,0,5.46-2,8.11,8.11,0,0,0,1.9-5.76V104.18h10.14V129a17.7,17.7,0,0,1-2.37,9.43,15.15,15.15,0,0,1-6.38,5.81,20,20,0,0,1-8.93,2,19.5,19.5,0,0,1-8.81-1.93,14.38,14.38,0,0,1-6.14-5.81A18.61,18.61,0,0,1,797,129V104.18Z"/><path d="M845.86,144.76a13.4,13.4,0,0,1-5.78-4.39,12,12,0,0,1-2.29-7h10.8a5.25,5.25,0,0,0,1.6,3.53,5.16,5.16,0,0,0,3.56,1.21,5.53,5.53,0,0,0,3.56-1,3.47,3.47,0,0,0,1.31-2.87,3.41,3.41,0,0,0-1-2.55A8.54,8.54,0,0,0,855,130a44.37,44.37,0,0,0-4.31-1.48,47.18,47.18,0,0,1-6.58-2.49,12.22,12.22,0,0,1-4.39-3.68,10.23,10.23,0,0,1-1.84-6.35,10.9,10.9,0,0,1,4.21-9.1q4.21-3.3,11-3.29t11.09,3.29A11.78,11.78,0,0,1,868.7,116h-11a4.3,4.3,0,0,0-1.49-3.17,5.22,5.22,0,0,0-3.5-1.16,4.37,4.37,0,0,0-3,1,3.76,3.76,0,0,0,.77,6,30.28,30.28,0,0,0,5.93,2.44A54.79,54.79,0,0,1,863,123.7a12.42,12.42,0,0,1,4.36,3.61,9.69,9.69,0,0,1,1.84,6.12,12,12,0,0,1-1.81,6.46,12.61,12.61,0,0,1-5.25,4.63,17.9,17.9,0,0,1-8.12,1.72A21.58,21.58,0,0,1,845.86,144.76Z"/><path d="M679.88,175.37V217H669.73V199.87H654V217H643.81V175.37H654v16.31h15.78V175.37Z"/><path d="M697.32,183.49v8.43H710.9v7.83H697.32v9.13h15.36V217H687.17V175.37h25.51v8.12Z"/><path d="M729.41,209.18H742.7V217H719.27V175.37h10.14Z"/><path d="M777.64,195.39a12.18,12.18,0,0,1-5.1,4.83,17.92,17.92,0,0,1-8.54,1.84h-6.29V217H747.56V175.37H764a18.67,18.67,0,0,1,8.42,1.72,11.85,11.85,0,0,1,5.16,4.74,13.77,13.77,0,0,1,1.72,6.94A13.39,13.39,0,0,1,777.64,195.39Zm-10.09-2.76a5.91,5.91,0,0,0,0-7.71,6,6,0,0,0-4.33-1.37h-5.51V194h5.51A6,6,0,0,0,767.55,192.63Z"/><path class="cls-2" d="M832.87,175.37l-14.42,27.88V217H808.31V203.25l-14.42-27.88H805.4l8.07,17.44,8-17.44Z"/><path class="cls-2" d="M845.89,214.7a20.45,20.45,0,0,1-7.77-7.62,21.34,21.34,0,0,1-2.88-11,21.12,21.12,0,0,1,2.88-11,20.47,20.47,0,0,1,7.77-7.6,22.59,22.59,0,0,1,21.53,0,20,20,0,0,1,7.72,7.6,22.72,22.72,0,0,1,0,22,20.29,20.29,0,0,1-7.71,7.62,22.55,22.55,0,0,1-21.51,0Zm18.75-9.85a14.43,14.43,0,0,0,0-17.59,10.29,10.29,0,0,0-8-3.29,10.41,10.41,0,0,0-8,3.26c-2,2.18-3,5.12-3,8.84a12.58,12.58,0,0,0,3,8.81,10.33,10.33,0,0,0,8,3.29A10.21,10.21,0,0,0,864.64,204.85Z"/><path class="cls-2" d="M893.56,175.37v24.91A8.25,8.25,0,0,0,895.4,206a6.93,6.93,0,0,0,5.39,2,7.13,7.13,0,0,0,5.46-2,8.09,8.09,0,0,0,1.9-5.76V175.37h10.14v24.85a17.73,17.73,0,0,1-2.37,9.44,15.21,15.21,0,0,1-6.38,5.81,20.07,20.07,0,0,1-8.92,2,19.61,19.61,0,0,1-8.81-1.93,14.38,14.38,0,0,1-6.14-5.81,18.52,18.52,0,0,1-2.26-9.47V175.37Z"/></svg>