<svg id="Layer_1" data-name="Layer 1" xmlns="http://www.w3.org/2000/svg" viewBox="0 0 339.88 85.02"><defs><style>.cls-1{fill:#414145;}.cls-2{fill:#424145;}.cls-3{fill:#39b54a;}.cls-4{fill:#fff;}</style></defs><path class="cls-1" d="M152,412.62H141.57V368.39h10.08V374a12.31,12.31,0,0,1,5.5-5.08,16.81,16.81,0,0,1,7.58-1.82,16,16,0,0,1,8,2,12.3,12.3,0,0,1,5.26,5.81q4.63-7.81,14.35-7.81a15.59,15.59,0,0,1,11.09,4.27q4.53,4.26,4.54,12.53v28.7H197.79v-27a9.81,9.81,0,0,0-2.13-6.59c-1.42-1.66-3.56-2.49-6.4-2.49a8.49,8.49,0,0,0-6.63,2.81,10,10,0,0,0-2.55,7v26.24H169.73v-27a9.77,9.77,0,0,0-2.14-6.59q-2.13-2.49-6.4-2.49a8.57,8.57,0,0,0-6.68,2.76,10.16,10.16,0,0,0-2.49,7.05Z" transform="translate(-141.57 -346.86)"/><path class="cls-1" d="M229.22,430.52H218l10.62-23.16-18.89-39h11.9l12.72,28,11.9-28h11.17Z" transform="translate(-141.57 -346.86)"/><path class="cls-2" d="M321,395.64l12.62-47.41h11.26l-18.07,64.39H315.51l-15.62-48.68-15.63,48.68H273.09l-18.26-64.39h11.45l12.9,47,15.07-47h11.36Z" transform="translate(-141.57 -346.86)"/><path class="cls-3" d="M364.28,367a22.11,22.11,0,0,1,16.49,6.63q6.5,6.63,6.49,16.8t-6.49,16.85a23.57,23.57,0,0,1-32.88,0q-6.5-6.68-6.5-16.85t6.5-16.8A22,22,0,0,1,364.28,367Zm-8.76,33.74a12.13,12.13,0,0,0,17.53.05q3.58-3.74,3.59-10.36t-3.59-10.22a12.3,12.3,0,0,0-17.53,0q-3.6,3.69-3.59,10.22T355.52,400.77Z" transform="translate(-141.57 -346.86)"/><path class="cls-2" d="M418.69,368.12v10.72a22.24,22.24,0,0,0-3.45-.28q-11.91,0-11.9,13v21.07H392.8V368.39h10.27v7.09a11.8,11.8,0,0,1,5-5.59,15.07,15.07,0,0,1,7.81-2A14.5,14.5,0,0,1,418.69,368.12Z" transform="translate(-141.57 -346.86)"/><path class="cls-2" d="M464.28,368.39,446.12,387.1l18.53,25.52h-12.9l-13-18.07-5.45,5.72v12.35H422.87V346.86h10.44v39.42l17-17.89Z" transform="translate(-141.57 -346.86)"/><path class="cls-2" d="M468.78,411a7.1,7.1,0,0,1-2.13-5.22,7.28,7.28,0,0,1,2.13-5.27,7,7,0,0,1,5.22-2.18,7.44,7.44,0,0,1,7.45,7.45,7,7,0,0,1-2.18,5.22,7.23,7.23,0,0,1-5.27,2.14A7.07,7.07,0,0,1,468.78,411Z" transform="translate(-141.57 -346.86)"/><rect class="cls-3" x="336.93" y="410.27" width="39.59" height="6.22" rx="3.11" transform="translate(-303.49 237.22) rotate(-67.43)"/><circle class="cls-4" cx="222.86" cy="44.15" r="17.36"/></svg>